<?xml version="1.0" standalone="no"?>
<!DOCTYPE svg PUBLIC "-//W3C//DTD SVG 20010904//EN"
 "http://www.w3.org/TR/2001/REC-SVG-20010904/DTD/svg10.dtd">
<svg version="1.0" xmlns="http://www.w3.org/2000/svg"
 width="1280.000000pt" height="640.000000pt" viewBox="0 0 1280.000000 640.000000"
 preserveAspectRatio="xMidYMid meet">
<metadata>
Created by potrace 1.15, written by Peter Selinger 2001-2017
</metadata>
<g transform="translate(-700,285.000000) scale(0.100000,-0.100000)"
fill="#000000" stroke="none">
<path d="M7624 2820 c-49 -15 -77 -53 -77 -104 0 -25 7 -56 17 -71 10 -15 16
-27 14 -28 -183 -91 -283 -220 -262 -341 8 -49 43 -121 80 -165 l26 -32 -16
-64 c-9 -35 -16 -73 -16 -84 0 -29 26 -50 78 -63 l47 -12 -50 -14 c-29 -8 -93
-14 -154 -13 -119 0 -141 -8 -195 -70 l-35 -41 38 -57 c21 -31 48 -65 60 -75
19 -18 22 -18 39 -3 11 10 61 21 147 32 152 19 215 36 267 70 l37 25 36 -21
c53 -32 118 -49 258 -69 78 -11 138 -25 154 -36 l27 -17 40 45 c23 25 49 59
58 75 17 30 17 31 -11 70 -43 59 -81 73 -193 71 -100 -3 -220 19 -183 33 11 4
35 13 53 19 50 19 54 37 31 120 l-21 73 21 26 c43 55 73 114 84 166 9 46 8 63
-7 112 -27 86 -120 173 -254 240 -2 1 3 12 11 25 50 80 8 172 -84 183 -19 2
-48 0 -65 -5z m86 -80 c11 -11 20 -27 20 -35 0 -21 -36 -55 -58 -55 -30 0 -54
25 -54 55 0 51 55 72 92 35z m25 -179 c63 -29 162 -107 191 -151 50 -76 38
-187 -25 -224 -63 -36 -378 -40 -454 -5 -56 26 -83 128 -51 195 39 83 202 204
273 204 14 0 44 -9 66 -19z m127 -491 l-4 -35 -188 0 -188 0 -4 35 -3 35 195
0 195 0 -3 -35z m-3 -100 c28 -14 27 -36 -1 -43 -44 -11 -275 -20 -332 -13
-58 8 -80 26 -57 49 25 25 345 32 390 7z m-123 -135 c67 -48 118 -62 264 -74
108 -9 127 -13 142 -32 14 -16 15 -25 7 -41 -10 -18 -17 -19 -87 -13 -202 17
-319 49 -366 100 l-24 26 -26 -26 c-34 -34 -96 -61 -171 -74 -108 -18 -263
-33 -274 -26 -6 3 -11 17 -11 31 0 36 43 50 170 57 131 8 171 19 240 68 30 21
62 39 71 39 8 0 38 -16 65 -35z"/>
<path d="M7638 2433 c-3 -33 -7 -38 -30 -41 -25 -3 -28 -8 -28 -38 0 -31 2
-34 30 -34 28 0 30 -2 30 -40 0 -38 2 -40 30 -40 28 0 30 2 30 39 0 37 2 40
33 43 28 3 32 7 35 35 3 29 1 32 -30 35 -30 3 -33 6 -36 41 -3 33 -6 37 -32
37 -26 0 -29 -4 -32 -37z"/>
</g>
</svg>
