<?xml version="1.0" encoding="UTF-8" standalone="no"?>
<svg
   version="1.0"
   width="1280.000000pt"
   height="640.000000pt"
   viewBox="0 0 1280.000000 640.000000"
   preserveAspectRatio="xMidYMid meet"
   id="svg10"
   sodipodi:docname="bishop.svg"
   inkscape:version="1.2 (dc2aeda, 2022-05-15)"
   xmlns:inkscape="http://www.inkscape.org/namespaces/inkscape"
   xmlns:sodipodi="http://sodipodi.sourceforge.net/DTD/sodipodi-0.dtd"
   xmlns="http://www.w3.org/2000/svg"
   xmlns:svg="http://www.w3.org/2000/svg">
  <defs
     id="defs14" />
  <sodipodi:namedview
     id="namedview12"
     pagecolor="#ffffff"
     bordercolor="#000000"
     borderopacity="0.25"
     inkscape:showpageshadow="2"
     inkscape:pageopacity="0.0"
     inkscape:pagecheckerboard="0"
     inkscape:deskcolor="#d1d1d1"
     inkscape:document-units="pt"
     showgrid="false"
     inkscape:zoom="1.3489238"
     inkscape:cx="271.32741"
     inkscape:cy="81.54649"
     inkscape:window-width="1309"
     inkscape:window-height="456"
     inkscape:window-x="0"
     inkscape:window-y="25"
     inkscape:window-maximized="0"
     inkscape:current-layer="svg10" />
  <metadata
     id="metadata2">
Created by potrace 1.15, written by Peter Selinger 2001-2017
</metadata>
  <g
     transform="translate(-700,285.000000) scale(0.100000,-0.100000)"
     fill="#000000"
     stroke="none"
     id="g8"
     style="fill:#000000">
    <path
       d="M7624 2820 c-49 -15 -77 -53 -77 -104 0 -25 7 -56 17 -71 10 -15 16 -27 14 -28 -183 -91 -283 -220 -262 -341 8 -49 43 -121 80 -165 l26 -32 -16 -64 c-9 -35 -16 -73 -16 -84 0 -29 26 -50 78 -63 l47 -12 -50 -14 c-29 -8 -93 -14 -154 -13 -119 0 -141 -8 -195 -70 l-35 -41 38 -57 c21 -31 48 -65 60 -75 19 -18 22 -18 39 -3 11 10 61 21 147 32 152 19 215 36 267 70 l37 25 36 -21 c53 -32 118 -49 258 -69 78 -11 138 -25 154 -36 l27 -17 40 45 c23 25 49 59 58 75 17 30 17 31 -11 70 -43 59 -81 73 -193 71 -100 -3 -220 19 -183 33 11 4 35 13 53 19 50 19 54 37 31 120 l-21 73 21 26 c43 55 73 114 84 166 9 46 8 63 -7 112 -27 86 -120 173 -254 240 -2 1 3 12 11 25 50 80 8 172 -84 183 -19 2 -48 0 -65 -5z m86 -80 c11 -11 20 -27 20 -35 0 -21 -36 -55 -58 -55 -30 0 -54 25 -54 55 0 51 55 72 92 35z m25 -179 c63 -29 162 -107 191 -151 50 -76 38 -187 -25 -224 -63 -36 -378 -40 -454 -5 -56 26 -83 128 -51 195 39 83 202 204 273 204 14 0 44 -9 66 -19z m127 -491 l-4 -35 -188 0 -188 0 -4 35 -3 35 195 0 195 0 -3 -35z m-3 -100 c28 -14 27 -36 -1 -43 -44 -11 -275 -20 -332 -13 -58 8 -80 26 -57 49 25 25 345 32 390 7z m-123 -135 c67 -48 118 -62 264 -74 108 -9 127 -13 142 -32 14 -16 15 -25 7 -41 -10 -18 -17 -19 -87 -13 -202 17 -319 49 -366 100 l-24 26 -26 -26 c-34 -34 -96 -61 -171 -74 -108 -18 -263 -33 -274 -26 -6 3 -11 17 -11 31 0 36 43 50 170 57 131 8 171 19 240 68 30 21 62 39 71 39 8 0 38 -16 65 -35z"
       id="path4"
       style="fill:#000000" />
    <path
       d="M7638 2433 c-3 -33 -7 -38 -30 -41 -25 -3 -28 -8 -28 -38 0 -31 2 -34 30 -34 28 0 30 -2 30 -40 0 -38 2 -40 30 -40 28 0 30 2 30 39 0 37 2 40 33 43 28 3 32 7 35 35 3 29 1 32 -30 35 -30 3 -33 6 -36 41 -3 33 -6 37 -32 37 -26 0 -29 -4 -32 -37z"
       id="path6"
       style="fill:#000000" />
  </g>
  <g
     inkscape:groupmode="layer"
     id="layer1"
     inkscape:label="Layer 1">
    <path
       style="fill:#ffffff;stroke:#000000;stroke-width:0"
       d="M 70.12295,91.227804 C 60.657415,89.898877 56.880401,87.958788 54.231155,83.064873 50.539971,76.246199 50.469699,67.786893 54.05344,61.671701 58.205043,54.587526 70.060262,44.416736 80.100274,39.325688 c 6.34221,-3.215982 9.904396,-3.490563 15.784187,-1.216681 7.059859,2.730249 21.138379,13.073738 25.770079,18.933275 6.82244,8.631035 7.32716,22.199046 1.07489,28.89533 -3.95728,4.238308 -10.12461,5.338311 -31.507793,5.61972 -9.429471,0.124094 -18.92388,-0.02419 -21.098687,-0.329528 z M 92.9626,80.708505 c 0.287872,-0.444786 0.66897,-2.695517 0.846885,-5.001622 l 0.323481,-4.19292 3.473438,-0.768531 c 1.910391,-0.422692 3.771066,-1.066154 4.134826,-1.429915 0.36376,-0.363761 0.80192,-2.123996 0.97369,-3.911634 0.34834,-3.625224 -0.13516,-4.080151 -5.214649,-4.906554 -2.675306,-0.435256 -3.690786,-1.973342 -3.690786,-5.590211 0,-3.482522 -0.976542,-4.444085 -4.513315,-4.444085 -1.745626,0 -3.351191,0.286918 -3.567921,0.637596 -0.216731,0.350678 -0.666688,2.315825 -0.999905,4.366993 -0.637983,3.927208 -1.768768,5.346803 -4.259022,5.346803 -2.418688,0 -3.480848,1.680492 -3.480848,5.507206 0,3.945306 0.371727,4.341548 4.528733,4.827402 l 2.911329,0.340264 0.457993,4.152934 c 0.251896,2.284113 0.606675,4.540393 0.788398,5.013955 0.432429,1.126892 6.563706,1.17091 7.287673,0.05232 z"
       id="path993"
       transform="scale(0.75)" />
    <path
       style="fill:#ffffff;stroke:#000000;stroke-width:0"
       d="m 64.413428,106.58698 c -0.169081,-0.80061 -0.40067,-2.69298 -0.514644,-4.20525 L 63.69156,99.632142 h 25.703353 25.703357 l -0.34765,3.396548 c -0.19121,1.86811 -0.45949,3.76047 -0.59618,4.20526 -0.19312,0.62842 -5.73089,0.8087 -24.841058,0.8087 H 64.720848 Z"
       id="path995"
       transform="scale(0.75)" />
    <path
       style="fill:#ffffff;stroke:#000000;stroke-width:0"
       d="m 67.735853,123.9998 c -2.064395,-0.47097 -4.335191,-1.43806 -5.046214,-2.14908 -1.248715,-1.24872 -1.253088,-1.33947 -0.128328,-2.6632 1.820794,-2.14289 7.399168,-2.856 25.102035,-3.2089 17.304784,-0.34496 24.678524,0.27531 27.455094,2.30952 5.61683,4.11506 -1.50173,5.67957 -28.425537,6.24735 -11.2841,0.23796 -16.171248,0.0999 -18.95705,-0.53569 z"
       id="path997"
       transform="scale(0.75)" />
    <path
       style="fill:#ffffff;stroke:#000000;stroke-width:0"
       d="m 26.654833,155.78844 c -0.932651,-0.93265 -1.017297,-4.0342 -0.154117,-5.64707 1.323781,-2.4735 6.445042,-3.63463 21.637577,-4.90582 18.476366,-1.54596 23.133423,-2.87891 32.731952,-9.36857 4.596591,-3.10781 7.399623,-4.5337 8.912367,-4.5337 0.667199,0 4.248037,1.89573 7.957412,4.21274 10.903686,6.81081 14.683666,7.86731 35.777616,9.99985 7.4284,0.75098 14.45032,1.75992 15.60427,2.24207 3.84356,1.60594 5.39587,5.56049 3.02495,7.70614 -1.51883,1.37452 -6.67491,1.40035 -17.90622,0.0897 -23.02402,-2.68679 -34.754692,-6.31564 -41.270666,-12.76694 -1.707132,-1.69018 -3.280233,-3.07307 -3.495781,-3.07307 -0.215544,0 -1.899763,1.42608 -3.742708,3.16906 -7.46427,7.05939 -17.502059,10.00382 -43.175336,12.66479 -11.482262,1.1901 -14.877016,1.23511 -15.901316,0.21081 z"
       id="path999"
       transform="scale(0.75)" />
    <path
       style="fill:#ffffff;stroke:#000000;stroke-width:0"
       d="m 86.896511,25.57851 c -4.023794,-1.750066 -5.299793,-7.214975 -2.469882,-10.578132 2.032986,-2.416067 4.233048,-2.984967 7.027757,-1.817262 2.219789,0.927487 5.589909,4.680947 5.589909,6.225743 0,1.364936 -3.140431,5.093662 -5.177011,6.146819 -2.246327,1.16162 -2.351334,1.162102 -4.970773,0.02283 z"
       id="path1001"
       transform="scale(0.75)" />
  </g>
</svg>
