<?xml version="1.0" standalone="no"?>
<!DOCTYPE svg PUBLIC "-//W3C//DTD SVG 20010904//EN"
 "http://www.w3.org/TR/2001/REC-SVG-20010904/DTD/svg10.dtd">
<svg version="1.0" xmlns="http://www.w3.org/2000/svg"
 width="1280.000000pt" height="640.000000pt" viewBox="0 0 1280.000000 640.000000"
 preserveAspectRatio="xMidYMid meet">
<metadata>
Created by potrace 1.15, written by Peter Selinger 2001-2017
</metadata>
<g transform="translate(5,285.000000) scale(0.100000,-0.100000)"
fill="#000000" stroke="none">

<path d="M535 2776 c-12 -28 -21 -35 -47 -38 -29 -3 -33 -7 -36 -35 -3 -29 1
-34 37 -53 47 -23 56 -61 21 -80 -40 -21 -80 -90 -80 -137 0 -40 -11 -55 -24
-34 -15 23 -99 51 -155 51 -122 0 -207 -67 -225 -176 -12 -67 2 -108 74 -219
70 -108 84 -145 99 -271 5 -39 14 -80 20 -91 15 -30 85 -59 173 -73 105 -17
363 -8 437 15 82 25 106 55 114 140 11 109 32 171 86 253 67 103 91 158 91
214 0 60 -13 95 -53 136 -77 81 -187 99 -287 46 -30 -16 -58 -30 -62 -32 -5
-2 -8 22 -8 53 0 53 -2 58 -45 99 -55 54 -57 77 -10 106 29 18 35 28 35 56 0
32 -2 34 -34 34 -30 0 -36 4 -46 35 -9 27 -17 35 -36 35 -19 0 -29 -8 -39 -34z
m69 -267 c29 -13 46 -55 46 -110 0 -38 -55 -159 -75 -166 -6 -2 -25 23 -43 56
-49 90 -44 199 11 221 30 12 32 12 61 -1z m-270 -144 c99 -47 192 -176 198
-275 l3 -45 -55 -11 c-30 -6 -103 -14 -162 -18 l-108 -7 -46 63 c-78 106 -92
164 -54 237 17 34 38 50 100 75 24 9 84 0 124 -19z m632 6 c49 -22 81 -64 90
-118 8 -49 -10 -94 -72 -178 l-47 -64 -61 4 c-34 3 -95 7 -137 10 -42 2 -89 9
-104 15 -26 10 -27 14 -22 56 7 65 60 167 110 210 52 45 132 84 172 84 17 0
48 -9 71 -19z m-218 -416 c79 -7 146 -16 149 -18 5 -5 -13 -136 -19 -142 -2
-2 -34 4 -73 13 -123 28 -403 21 -520 -13 -18 -6 -21 1 -32 67 -6 40 -10 74
-9 76 2 1 57 7 122 13 65 6 137 15 159 19 22 5 49 6 60 4 11 -3 85 -11 163
-19z m35 -216 c36 -9 49 -31 27 -44 -23 -14 -265 -24 -359 -15 -133 13 -158
25 -109 51 46 25 351 30 441 8z"/>
</g>
</svg>
