<?xml version="1.0" encoding="UTF-8" standalone="no"?>
<svg
   version="1.0"
   width="1280.000000pt"
   height="640.000000pt"
   viewBox="0 0 1280.000000 640.000000"
   preserveAspectRatio="xMidYMid meet"
   id="svg8"
   sodipodi:docname="king.svg"
   inkscape:version="1.2 (dc2aeda, 2022-05-15)"
   xmlns:inkscape="http://www.inkscape.org/namespaces/inkscape"
   xmlns:sodipodi="http://sodipodi.sourceforge.net/DTD/sodipodi-0.dtd"
   xmlns="http://www.w3.org/2000/svg"
   xmlns:svg="http://www.w3.org/2000/svg">
  <defs
     id="defs12" />
  <sodipodi:namedview
     id="namedview10"
     pagecolor="#ffffff"
     bordercolor="#000000"
     borderopacity="0.25"
     inkscape:showpageshadow="2"
     inkscape:pageopacity="0.0"
     inkscape:pagecheckerboard="0"
     inkscape:deskcolor="#d1d1d1"
     inkscape:document-units="pt"
     showgrid="false"
     inkscape:zoom="1.6651818"
     inkscape:cx="183.76372"
     inkscape:cy="82.873832"
     inkscape:window-width="1309"
     inkscape:window-height="456"
     inkscape:window-x="0"
     inkscape:window-y="25"
     inkscape:window-maximized="0"
     inkscape:current-layer="svg8" />
  <metadata
     id="metadata2">
Created by potrace 1.15, written by Peter Selinger 2001-2017
</metadata>
  <g
     transform="translate(5,285.000000) scale(0.100000,-0.100000)"
     fill="#000000"
     stroke="none"
     id="g6">
    <path
       d="M535 2776 c-12 -28 -21 -35 -47 -38 -29 -3 -33 -7 -36 -35 -3 -29 1 -34 37 -53 47 -23 56 -61 21 -80 -40 -21 -80 -90 -80 -137 0 -40 -11 -55 -24 -34 -15 23 -99 51 -155 51 -122 0 -207 -67 -225 -176 -12 -67 2 -108 74 -219 70 -108 84 -145 99 -271 5 -39 14 -80 20 -91 15 -30 85 -59 173 -73 105 -17 363 -8 437 15 82 25 106 55 114 140 11 109 32 171 86 253 67 103 91 158 91 214 0 60 -13 95 -53 136 -77 81 -187 99 -287 46 -30 -16 -58 -30 -62 -32 -5 -2 -8 22 -8 53 0 53 -2 58 -45 99 -55 54 -57 77 -10 106 29 18 35 28 35 56 0 32 -2 34 -34 34 -30 0 -36 4 -46 35 -9 27 -17 35 -36 35 -19 0 -29 -8 -39 -34z m69 -267 c29 -13 46 -55 46 -110 0 -38 -55 -159 -75 -166 -6 -2 -25 23 -43 56 -49 90 -44 199 11 221 30 12 32 12 61 -1z m-270 -144 c99 -47 192 -176 198 -275 l3 -45 -55 -11 c-30 -6 -103 -14 -162 -18 l-108 -7 -46 63 c-78 106 -92 164 -54 237 17 34 38 50 100 75 24 9 84 0 124 -19z m632 6 c49 -22 81 -64 90 -118 8 -49 -10 -94 -72 -178 l-47 -64 -61 4 c-34 3 -95 7 -137 10 -42 2 -89 9 -104 15 -26 10 -27 14 -22 56 7 65 60 167 110 210 52 45 132 84 172 84 17 0 48 -9 71 -19z m-218 -416 c79 -7 146 -16 149 -18 5 -5 -13 -136 -19 -142 -2 -2 -34 4 -73 13 -123 28 -403 21 -520 -13 -18 -6 -21 1 -32 67 -6 40 -10 74 -9 76 2 1 57 7 122 13 65 6 137 15 159 19 22 5 49 6 60 4 11 -3 85 -11 163 -19z m35 -216 c36 -9 49 -31 27 -44 -23 -14 -265 -24 -359 -15 -133 13 -158 25 -109 51 46 25 351 30 441 8z"
       id="path4" />
  </g>
  <path
     style="fill:#ffffff;stroke:#000000;stroke-width:0"
     d="M 31.689067,107.41365 C 22.138391,94.423753 19.634325,89.434239 19.314345,82.756213 c -0.201272,-4.200587 -0.04244,-5.009994 1.743441,-8.884511 2.289054,-4.966166 4.631529,-7.242002 10.141589,-9.853085 3.326813,-1.576496 4.578867,-1.850827 8.135669,-1.782567 7.920859,0.152012 15.282077,3.695437 22.721056,10.937099 9.3772,9.12847 14.906451,19.953977 15.046077,29.458131 l 0.06657,4.53152 -5.404816,1.03415 c -5.641406,1.07942 -19.467528,2.5507 -30.42256,3.23737 l -6.40116,0.40122 z"
     id="path865"
     transform="scale(0.75)" />
  <path
     style="fill:#ffffff;stroke:#000000;stroke-width:0"
     d="m 114.40192,110.4337 c -16.786058,-1.2589 -23.377366,-2.32726 -25.122034,-4.07193 -1.07723,-1.07723 -1.11261,-1.50099 -0.480275,-5.75252 1.755907,-11.805884 9.634682,-24.793658 18.827679,-31.036504 1.93867,-1.316527 5.8775,-3.524015 8.75296,-4.905529 4.71559,-2.265612 5.67274,-2.511843 9.76401,-2.511843 4.03599,0 5.04104,0.249683 9.11893,2.265424 11.20434,5.538405 14.88467,16.39931 9.32033,27.504964 -3.0108,6.009156 -12.9415,19.793878 -14.19489,19.703818 -0.53533,-0.0385 -7.72935,-0.57661 -15.98671,-1.19588 z"
     id="path867"
     transform="scale(0.75)" />
  <path
     style="fill:#ffffff;stroke:#000000;stroke-width:0"
     d="m 79.995194,77.946473 c -3.266122,-5.030588 -4.698009,-8.529286 -5.881862,-14.371842 -2.074891,-10.24001 1.006124,-17.575975 7.93154,-18.885172 2.049121,-0.387371 5.756813,1.164996 7.569167,3.16912 1.439048,1.591318 2.855121,5.859155 3.247343,9.787017 0.25727,2.576404 -0.01442,4.372021 -1.227537,8.112988 -1.902644,5.86729 -6.951505,15.538306 -8.241656,15.786767 -0.598204,0.115204 -1.83927,-1.199617 -3.396995,-3.598878 z"
     id="path869"
     transform="scale(0.75)" />
  <path
     style="fill:#ffffff;stroke:#000000;stroke-width:0"
     d="m 42.085291,138.33456 c -1.011237,-3.63798 -2.711383,-15.76419 -2.271833,-16.20374 0.218061,-0.21806 6.550282,-1.02782 14.071603,-1.79946 7.521321,-0.77163 16.774601,-1.84693 20.562844,-2.38955 4.114707,-0.58937 8.345799,-0.84133 10.509363,-0.62583 11.105628,1.10619 37.541052,4.04946 39.256582,4.37076 l 2.00497,0.37551 -0.41885,4.27706 c -0.44834,4.57814 -1.9234,13.61917 -2.2802,13.97597 -0.11871,0.11871 -3.50505,-0.45406 -7.52519,-1.27283 -19.785436,-4.0296 -50.075766,-3.50046 -71.659949,1.25182 -1.455315,0.32043 -1.66674,0.13623 -2.24934,-1.95971 z"
     id="path871"
     transform="scale(0.75)" />
  <path
     style="fill:#ffffff;stroke:#000000;stroke-width:0"
     d="m 64.352964,155.49856 c -6.466596,-0.73227 -13.360469,-2.1749 -14.14573,-2.96016 -1.047538,-1.04754 1.457431,-2.87959 5.297132,-3.87415 8.430168,-2.18358 39.516917,-2.71979 51.566044,-0.88945 4.49181,0.68234 8.14296,2.35439 8.67371,3.97215 0.43114,1.31418 -2.50133,2.48606 -7.94808,3.17622 -7.11183,0.90114 -37.063308,1.29784 -43.443076,0.57539 z"
     id="path873"
     transform="scale(0.75)" />
</svg>
