<?xml version="1.0" encoding="UTF-8" standalone="no"?>
<svg
   version="1.0"
   width="1280.000000pt"
   height="640.000000pt"
   viewBox="0 0 1280.000000 640.000000"
   preserveAspectRatio="xMidYMid meet"
   id="svg12"
   sodipodi:docname="knight.svg"
   inkscape:version="1.2 (dc2aeda, 2022-05-15)"
   xmlns:inkscape="http://www.inkscape.org/namespaces/inkscape"
   xmlns:sodipodi="http://sodipodi.sourceforge.net/DTD/sodipodi-0.dtd"
   xmlns="http://www.w3.org/2000/svg"
   xmlns:svg="http://www.w3.org/2000/svg">
  <defs
     id="defs16" />
  <sodipodi:namedview
     id="namedview14"
     pagecolor="#ffffff"
     bordercolor="#000000"
     borderopacity="0.25"
     inkscape:showpageshadow="2"
     inkscape:pageopacity="0.0"
     inkscape:pagecheckerboard="0"
     inkscape:deskcolor="#d1d1d1"
     inkscape:document-units="pt"
     showgrid="false"
     inkscape:zoom="4.4583665"
     inkscape:cx="111.47581"
     inkscape:cy="38.130557"
     inkscape:window-width="1309"
     inkscape:window-height="456"
     inkscape:window-x="0"
     inkscape:window-y="25"
     inkscape:window-maximized="0"
     inkscape:current-layer="svg12" />
  <metadata
     id="metadata2">
Created by potrace 1.15, written by Peter Selinger 2001-2017
</metadata>
  <g
     transform="translate(-935,285) scale(0.100000,-0.100000)"
     fill="#000000"
     stroke="none"
     id="g10">
    <path
       d="M9937 2650 c-14 -16 -27 -34 -29 -40 -2 -7 -23 -2 -56 15 -28 14 -75 29 -103 32 l-51 6 7 -61 c8 -70 -6 -130 -59 -244 -94 -205 -135 -298 -150 -345 l-18 -53 29 -40 c32 -45 84 -74 120 -67 17 3 32 -3 49 -20 39 -39 71 -28 116 37 21 30 55 72 76 93 38 40 119 93 128 84 12 -12 -14 -66 -81 -167 -73 -108 -115 -199 -115 -245 l0 -25 379 0 379 0 7 73 c9 94 -9 289 -35 392 -38 147 -120 289 -217 375 -64 56 -114 81 -179 87 -50 5 -54 8 -65 40 -14 44 -66 103 -89 103 -10 0 -29 -13 -43 -30z m-135 -66 l32 -16 -25 -14 c-37 -21 -49 -17 -49 16 0 35 1 35 42 14z m198 -32 c30 -96 25 -92 103 -92 53 0 78 -5 103 -21 55 -34 146 -142 191 -225 65 -122 84 -203 90 -381 l6 -152 -302 -3 c-240 -2 -301 0 -301 10 0 19 37 88 89 167 70 105 91 159 91 235 0 25 11 82 24 126 26 87 25 109 -5 94 -25 -14 -65 -85 -79 -140 -10 -40 -17 -49 -57 -70 -61 -32 -138 -104 -188 -174 -43 -59 -62 -66 -57 -21 3 26 1 27 -25 21 -76 -19 -88 -18 -116 10 -22 21 -27 34 -22 53 3 15 48 114 99 221 51 107 99 209 106 227 10 26 23 36 67 53 88 33 133 59 145 85 14 31 23 25 38 -23z"
       id="path4" />
    <path
       d="M9763 2360 c-33 -20 -50 -57 -39 -85 8 -22 33 -19 83 10 41 25 63 61 48 84 -10 17 -57 13 -92 -9z"
       id="path6" />
    <path
       d="M9585 2024 c-22 -23 -15 -58 12 -62 30 -4 53 39 33 63 -16 19 -25 19 -45 -1z"
       id="path8" />
  </g>
  <path
     style="fill:#ffffff;stroke:#000000;stroke-width:0"
     d="m 79.306854,155.90898 c -5.408274,-0.29938 -6.73084,-0.64338 -6.73084,-1.75069 0,-1.64415 4.597725,-10.09719 11.548524,-21.23229 9.77929,-15.6663 11.368505,-19.63699 12.143231,-30.34011 0.41606,-5.748007 1.662845,-12.2224 4.082451,-21.199614 0.81967,-3.041144 1.49032,-6.530939 1.49032,-7.755098 0,-2.06331 -0.12328,-2.225745 -1.68912,-2.225745 -1.180124,0 -2.335886,0.661395 -3.835405,2.194839 -2.598544,2.657344 -6.860313,10.953311 -8.561688,16.666201 -0.684584,2.298714 -1.60997,4.736952 -2.056412,5.418312 -0.446447,0.681354 -2.966623,2.520664 -5.600398,4.087346 -8.619452,5.127219 -15.548027,11.323079 -22.602717,20.212409 -8.417646,10.60674 -9.500984,11.31142 -9.500984,6.18009 0,-1.7515 -0.242886,-3.33467 -0.539746,-3.51814 -0.29686,-0.18346 -3.072581,0.22346 -6.16827,0.90427 -7.274152,1.59977 -8.797484,1.30317 -12.246873,-2.38451 -2.036208,-2.17687 -2.700857,-3.34421 -2.700857,-4.7436 0,-2.26469 2.519794,-8.22508 11.783057,-27.87193 3.914873,-8.303223 9.133668,-19.442552 11.597322,-24.754063 2.463654,-5.31151 4.796033,-10.233685 5.183066,-10.938164 0.73652,-1.34062 4.450579,-3.287549 13.284821,-6.963971 8.184988,-3.406232 12.030319,-6.162211 14.723382,-10.552365 0.659541,-1.075165 0.697058,-1.075454 1.504252,-0.01156 0.455309,0.600106 1.812527,4.082957 3.016042,7.739668 2.810975,8.540771 3.350361,9.016263 10.2461,9.032357 6.809918,0.0159 11.847478,0.810804 15.161248,2.392394 1.68249,0.803013 5.04261,3.614252 8.619,7.211063 15.35068,15.438366 25.05231,33.643128 28.09071,52.711251 0.77853,4.88587 1.49673,15.37164 2.31555,33.80747 l 0.33144,7.46246 -12.15405,5.8e-4 c -6.68473,4.7e-4 -22.16252,0.10138 -34.39509,0.22426 -12.232566,0.12288 -24.084698,0.12137 -26.338066,-0.004 z M 35.735136,118.21132 c 1.409278,-0.75422 2.894033,-3.56001 2.894033,-5.46894 0,-1.65247 -2.608101,-5.04894 -3.877009,-5.04894 -1.37816,0 -3.729017,1.80868 -4.639618,3.56959 -1.240709,2.39927 -1.03984,4.48586 0.588602,6.1143 1.532959,1.53297 3.209083,1.81065 5.033992,0.83399 z M 59.095519,76.682545 c 6.539974,-3.301369 10.3584,-8.636629 8.68687,-12.137651 -0.6884,-1.441855 -1.13744,-1.646685 -3.961746,-1.807155 -3.985268,-0.226433 -7.607282,1.096346 -10.738584,3.921788 -3.929425,3.545606 -5.177092,8.754091 -2.692233,11.238949 1.525316,1.525316 3.944732,1.187395 8.705693,-1.215931 z"
     id="path869"
     transform="scale(0.75)" />
  <path
     style="fill:#ffffff;stroke:#000000;stroke-width:0"
     d="m 55.631459,40.603534 c -0.638205,-0.638205 -0.790746,-1.400728 -0.790746,-3.952785 0,-2.370962 0.214558,-3.00614 1.015448,-3.00614 0.219877,0 2.196021,0.891333 4.391431,1.980739 l 3.991654,1.980739 -2.337282,1.311822 c -3.83169,2.150573 -5.387364,2.568766 -6.270505,1.685625 z"
     id="path871"
     transform="scale(0.75)" />
</svg>
