<?xml version="1.0" encoding="UTF-8" standalone="no"?>
<svg
   version="1.0"
   width="1280.000000pt"
   height="640.000000pt"
   viewBox="0 0 1280.000000 640.000000"
   preserveAspectRatio="xMidYMid meet"
   id="svg8"
   sodipodi:docname="pawn.svg"
   inkscape:version="1.2 (dc2aeda, 2022-05-15)"
   xmlns:inkscape="http://www.inkscape.org/namespaces/inkscape"
   xmlns:sodipodi="http://sodipodi.sourceforge.net/DTD/sodipodi-0.dtd"
   xmlns="http://www.w3.org/2000/svg"
   xmlns:svg="http://www.w3.org/2000/svg">
  <defs
     id="defs12" />
  <sodipodi:namedview
     id="namedview10"
     pagecolor="#ffffff"
     bordercolor="#000000"
     borderopacity="0.25"
     inkscape:showpageshadow="2"
     inkscape:pageopacity="0.0"
     inkscape:pagecheckerboard="0"
     inkscape:deskcolor="#d1d1d1"
     inkscape:document-units="pt"
     showgrid="false"
     inkscape:zoom="1.2078842"
     inkscape:cx="239.26134"
     inkscape:cy="60.436256"
     inkscape:window-width="1309"
     inkscape:window-height="456"
     inkscape:window-x="0"
     inkscape:window-y="25"
     inkscape:window-maximized="0"
     inkscape:current-layer="svg8" />
  <metadata
     id="metadata2">
Created by potrace 1.15, written by Peter Selinger 2001-2017
</metadata>
  <g
     transform="translate(-1180,285.000000) scale(0.100000,-0.100000)"
     fill="#000000"
     stroke="none"
     id="g6"><path
   d="M12356 2670 c-77 -23 -116 -103 -91 -186 13 -43 13 -49 -1 -57 -39 -22 -84 -71 -95 -104 -24 -72 7 -175 63 -207 l31 -19 -34 -17 c-51 -27 -126 -97 -154 -144 -33 -56 -55 -155 -55 -248 l0 -78 391 0 392 0 -6 103 c-3 56 -13 125 -22 153 -24 71 -79 140 -150 188 l-61 41 42 40 c47 45 60 87 49 160 -6 45 -51 104 -98 130 -17 9 -17 13 -2 57 42 121 -69 226 -199 188z m85 -60 c18 0 49 -40 49 -64 0 -13 -9 -43 -19 -66 -11 -24 -17 -49 -14 -56 2 -7 22 -24 44 -39 52 -34 79 -79 79 -133 0 -45 -17 -68 -88 -125 -29 -23 -17 -47 46 -90 129 -89 181 -168 190 -287 l5 -70 -323 0 -323 0 5 70 c9 121 54 187 198 293 58 43 62 67 15 104 -92 71 -86 168 14 239 44 32 51 59 26 104 -37 65 8 141 73 124 8 -2 18 -4 23 -4z"
   id="path4" />
 --&gt;
</g>
  <path
     style="fill:#ffffff;stroke:#000000;stroke-width:0"
     d="m 39.240195,148.78077 c 1.385001,-17.06938 6.650693,-25.63297 23.841976,-38.77415 10.82315,-8.27332 11.280048,-10.189584 4.087044,-17.141305 -5.860544,-5.663957 -7.852001,-9.269325 -7.852001,-14.215393 0,-5.326102 2.021639,-8.72257 9.148235,-15.369559 5.781066,-5.392011 6.268638,-6.103222 6.243203,-9.106833 -0.01517,-1.79193 -0.802898,-4.93454 -1.750499,-6.983577 -2.091135,-4.521746 -2.176927,-6.734622 -0.405798,-10.466998 1.82055,-3.836525 5.263068,-5.546198 9.691195,-4.812982 4.862387,0.805122 6.10713,1.641025 8.016311,5.383327 l 1.680619,3.294288 -2.568542,7.418775 c -1.412699,4.080327 -2.355865,8.088865 -2.095925,8.907863 0.259939,0.818998 3.033405,3.40544 6.163257,5.747649 4.265615,3.19215 6.236149,5.353254 7.86906,8.630068 4.23937,8.507319 2.31122,15.151626 -6.459781,22.260069 -7.192842,5.829426 -6.579415,7.964978 4.717843,16.424458 17.291018,12.94765 22.700868,22.04675 24.075178,40.49325 l 0.3855,5.17434 H 81.355192 38.683311 Z"
     id="path934"
     transform="scale(0.75)" />
</svg>
