<?xml version="1.0" encoding="UTF-8" standalone="no"?>
<svg
   version="1.0"
   width="1280.000000pt"
   height="640.000000pt"
   viewBox="0 0 1280.000000 640.000000"
   preserveAspectRatio="xMidYMid meet"
   id="svg8"
   sodipodi:docname="queen.svg"
   inkscape:version="1.2 (dc2aeda, 2022-05-15)"
   xmlns:inkscape="http://www.inkscape.org/namespaces/inkscape"
   xmlns:sodipodi="http://sodipodi.sourceforge.net/DTD/sodipodi-0.dtd"
   xmlns="http://www.w3.org/2000/svg"
   xmlns:svg="http://www.w3.org/2000/svg">
  <defs
     id="defs12" />
  <sodipodi:namedview
     id="namedview10"
     pagecolor="#ffffff"
     bordercolor="#000000"
     borderopacity="0.25"
     inkscape:showpageshadow="2"
     inkscape:pageopacity="0.0"
     inkscape:pagecheckerboard="0"
     inkscape:deskcolor="#d1d1d1"
     inkscape:document-units="pt"
     showgrid="false"
     inkscape:zoom="3.1184561"
     inkscape:cx="121.21383"
     inkscape:cy="49.704082"
     inkscape:window-width="1309"
     inkscape:window-height="456"
     inkscape:window-x="0"
     inkscape:window-y="25"
     inkscape:window-maximized="0"
     inkscape:current-layer="svg8" />
  <metadata
     id="metadata2">
Created by potrace 1.15, written by Peter Selinger 2001-2017
</metadata>
  <g
     transform="translate(-225, 285) scale(0.100000,-0.100000)"
     fill="#000000"
     stroke="none"
     id="g6">
    <path
       d="M2869 2751 c-33 -34 -36 -60 -13 -122 21 -57 21 -198 -1 -298 -8 -41 -17 -76 -19 -78 -5 -5 -65 151 -81 214 -11 41 -14 79 -9 129 6 65 4 72 -20 101 -63 75 -176 36 -176 -62 0 -35 6 -51 31 -79 16 -19 34 -50 40 -68 10 -37 12 -144 3 -201 l-7 -38 -28 33 c-66 75 -83 117 -81 191 2 80 -14 119 -57 137 -65 26 -141 -26 -141 -97 0 -28 8 -44 39 -75 32 -31 42 -51 51 -96 6 -31 23 -110 37 -176 24 -107 31 -122 68 -165 91 -102 97 -121 66 -193 -28 -65 -35 -119 -18 -142 21 -29 123 -46 322 -53 190 -6 361 7 422 32 34 14 38 25 33 90 -1 16 -11 46 -21 67 -35 69 -28 89 67 206 43 52 65 124 99 316 11 63 17 76 55 114 39 39 42 45 37 83 -10 77 -87 121 -145 83 -45 -29 -52 -45 -51 -120 2 -79 -15 -121 -74 -192 -33 -39 -35 -40 -41 -19 -10 38 -7 182 5 218 7 19 25 52 40 73 38 52 38 96 1 137 -24 26 -36 32 -72 32 -37 0 -48 -5 -73 -33 -28 -32 -29 -36 -23 -100 7 -78 -15 -179 -62 -286 -34 -76 -33 -76 -57 60 -20 116 -19 147 6 241 17 65 18 83 8 107 -27 65 -109 80 -160 29z m109 -57 c4 -38 -18 -59 -53 -50 -20 5 -25 12 -25 40 0 41 7 48 45 44 25 -3 30 -8 33 -34z m-304 -27 c12 -9 17 -23 14 -42 -2 -25 -8 -31 -33 -33 -19 -3 -33 2 -42 14 -17 24 -17 30 7 54 24 24 30 24 54 7z m580 0 c12 -9 17 -23 14 -42 -3 -27 -7 -30 -37 -30 -44 0 -61 35 -31 65 23 23 30 24 54 7z m-816 -119 c20 -20 15 -66 -8 -73 -37 -12 -60 3 -60 40 0 18 6 36 13 38 22 9 43 7 55 -5z m1060 0 c27 -27 7 -78 -29 -78 -21 0 -49 26 -49 45 0 35 53 58 78 33z m-788 -145 c0 -24 60 -140 97 -188 l36 -48 18 24 c21 27 69 168 69 203 0 54 15 30 36 -57 22 -92 58 -172 74 -162 19 12 83 118 115 190 l35 80 0 -65 c0 -68 23 -226 34 -237 3 -3 47 35 97 86 50 50 88 83 85 74 -3 -10 -13 -52 -22 -93 -15 -71 -38 -130 -50 -130 -2 0 -23 10 -46 21 -150 77 -516 78 -685 3 -41 -18 -59 -21 -69 -13 -7 5 -22 52 -34 102 -11 51 -23 99 -26 109 -3 9 36 -25 86 -75 50 -49 93 -87 96 -84 11 11 34 169 34 237 0 46 3 61 10 50 5 -8 10 -21 10 -27z m320 -313 c63 -6 133 -15 155 -21 38 -10 75 -34 75 -49 0 -3 -144 -6 -320 -7 -176 0 -320 3 -320 8 0 13 43 39 85 51 22 6 76 14 120 18 44 4 82 8 85 8 3 1 57 -3 120 -8z m132 -147 c67 -6 68 -6 60 -32 -4 -14 -7 -40 -6 -56 l0 -31 -50 7 c-28 4 -130 8 -226 8 -96 0 -198 -4 -226 -8 l-50 -7 0 31 c1 16 -3 42 -7 57 -7 26 -6 27 40 31 86 6 397 7 465 0z m35 -183 c40 -14 49 -36 21 -51 -52 -28 -429 -33 -530 -8 -39 10 -52 39 -26 55 38 24 471 27 535 4z"
       id="path4" />
  </g>
  <path
     style="fill:#ffffff;stroke:#000000;stroke-width:0"
     d="m 70.949828,154.50971 c -13.644001,-1.0073 -18.308027,-2.91185 -17.025611,-6.95239 0.891892,-2.8101 10.258889,-3.73607 38.203707,-3.77661 23.602886,-0.0342 30.654476,0.47588 35.372736,2.55888 3.27708,1.44675 4.0659,2.96699 2.35967,4.54764 -2.82946,2.6212 -11.5518,3.60774 -34.525422,3.90499 -9.620954,0.12449 -20.59424,-0.003 -24.38508,-0.28251 z"
     id="path865"
     transform="scale(0.75)" />
  <path
     style="fill:#ffffff;stroke:#000000;stroke-width:0"
     d="m 55.202985,131.09856 c -0.194956,-2.99369 -0.523937,-6.15985 -0.731068,-7.03592 -0.712051,-3.01164 -0.182883,-3.05624 35.906742,-3.02621 18.481731,0.0154 34.224371,0.27292 35.859921,0.58665 3.34353,0.64135 3.21188,0.0913 2.33208,9.7445 l -0.46746,5.129 -1.5154,-0.32722 c -8.99182,-1.94159 -58.636122,-1.95291 -68.962224,-0.0157 l -2.068125,0.38798 z"
     id="path867"
     transform="scale(0.75)" />
  <path
     style="fill:#ffffff;stroke:#000000;stroke-width:0"
     d="m 57.7345,110.97869 c -3.683205,-0.12798 -6.926956,-0.46292 -7.208336,-0.7443 -0.710742,-0.71074 3.746658,-3.82747 7.461804,-5.21749 4.098374,-1.5334 8.486188,-2.28148 20.59638,-3.51148 9.228033,-0.93728 11.150336,-0.95887 20.464693,-0.22992 15.100639,1.1818 25.116239,2.75563 29.200389,4.58848 3.34274,1.50014 6.40051,3.99437 5.72498,4.6699 -0.39628,0.39627 -66.532428,0.78214 -76.23991,0.44481 z"
     id="path869"
     transform="scale(0.75)" />
  <path
     style="fill:#ffffff;stroke:#000000;stroke-width:0"
     d="m 139.50329,100.03001 c -9.51522,-4.560049 -20.94278,-6.995453 -36.81528,-7.845955 -19.887376,-1.065632 -38.462649,0.931555 -51.667799,5.555249 -3.206985,1.122904 -7.045946,2.458906 -8.531025,2.968896 -3.35157,1.15097 -4.388371,0.7767 -5.574577,-2.012338 -0.984336,-2.314395 -6.684703,-24.747357 -6.368754,-25.063305 0.101317,-0.101318 4.143925,3.59509 8.983572,8.214239 9.530452,9.096238 13.591959,12.61348 14.565313,12.61348 1.370322,0 4.071208,-16.716505 4.569164,-28.279774 0.165725,-3.848382 0.437413,-7.652772 0.603752,-8.454201 l 0.302434,-1.457143 0.806419,1.457143 c 0.443531,0.801429 0.816988,1.981923 0.829905,2.62332 0.06654,3.304181 7.953671,17.963788 14.21349,26.418247 l 3.586566,4.843986 1.344923,-1.637001 c 1.865053,-2.27009 3.364302,-5.257649 5.66846,-11.295572 2.683203,-7.031194 4.940973,-15.472647 4.94148,-18.475432 2.28e-4,-1.362969 0.210093,-2.478125 0.466366,-2.478125 0.632388,0 1.486624,2.48839 3.912136,11.396018 3.874015,14.227202 7.467595,21.834521 9.941475,21.04529 2.37907,-0.758982 11.12139,-15.323727 16.90157,-28.158075 l 2.45768,-5.457044 0.39343,6.855103 c 0.49009,8.539116 1.89942,20.219507 3.16126,26.200251 0.69555,3.296695 1.22771,4.597288 1.93694,4.733873 0.61122,0.117709 4.10939,-2.821243 9.32927,-7.837884 12.44441,-11.959873 13.25584,-12.697214 13.59731,-12.355745 0.39525,0.395247 -2.84158,14.66411 -4.47558,19.729677 -1.59147,4.933678 -3.23386,8.163232 -4.15141,8.163232 -0.4034,0 -2.62122,-0.90469 -4.92849,-2.01041 z"
     id="path871"
     transform="scale(0.75)" />
  <path
     style="fill:#ffffff;stroke:#000000;stroke-width:0"
     d="m 50.489863,33.860795 c -1.151355,-0.501499 -2.624481,-2.159734 -3.254606,-3.663573 -0.415662,-0.992009 -0.389463,-1.167465 0.3671,-2.458442 0.92505,-1.57848 3.825022,-4.258521 4.907601,-4.535416 1.044548,-0.267167 2.020427,0.05483 3.571509,1.178423 1.851525,1.341238 2.411787,2.759783 2.147508,5.437337 -0.239491,2.426409 -0.905489,3.528337 -2.46217,4.073788 -1.456878,0.51048 -4.067713,0.49459 -5.276942,-0.03212 z"
     id="path873"
     transform="scale(0.75)" />
  <path
     style="fill:#ffffff;stroke:#000000;stroke-width:0"
     d="m 18.660632,49.828594 c -1.55914,-0.798472 -2.425465,-2.68999 -2.406936,-5.255256 0.02897,-4.010429 1.354129,-5.451415 5.013237,-5.451415 3.266126,0 5.196427,2.151911 5.177661,5.772087 -0.01864,3.596218 -1.374928,5.064701 -4.931433,5.339383 -1.275181,0.09849 -2.097706,-0.01824 -2.852529,-0.404799 z"
     id="path875"
     transform="scale(0.75)" />
  <path
     style="fill:#ffffff;stroke:#000000;stroke-width:0"
     d="m 89.741241,27.216742 c -2.094014,-0.587932 -2.662459,-1.54155 -2.794155,-4.687447 -0.217753,-5.201582 0.662903,-6.348612 4.690855,-6.109709 4.28055,0.253885 5.199061,1.233891 5.203063,5.551415 0.002,2.159401 -0.675158,3.761971 -2.011051,4.759358 -0.970995,0.724953 -3.409034,0.957982 -5.088712,0.486383 z"
     id="path877"
     transform="scale(0.75)" />
  <path
     style="fill:#ffffff;stroke:#000000;stroke-width:0"
     d="m 129.33528,33.656172 c -5.40401,-1.068113 -5.96326,-5.671605 -1.14503,-9.425453 1.78872,-1.39358 2.70128,-1.432965 4.64474,-0.200461 2.42584,1.538421 3.06576,3.04636 2.66249,6.274014 -0.29816,2.386382 -1.10726,3.255885 -3.22049,3.460887 -0.88184,0.08555 -2.20561,0.0365 -2.94171,-0.108987 z"
     id="path879"
     transform="scale(0.75)" />
  <path
     style="fill:#ffffff;stroke:#000000;stroke-width:0"
     d="m 159.59253,49.387733 c -2.09061,-1.325829 -3.52319,-3.604625 -3.31153,-5.26764 0.33284,-2.615113 2.9454,-4.739139 6.06554,-4.931317 1.68948,-0.104059 2.16805,-0.0072 3.10262,0.627655 2.42282,1.645952 3.10131,4.926976 1.58633,7.671218 -1.63392,2.959704 -4.58441,3.712923 -7.44296,1.900084 z"
     id="path881"
     transform="scale(0.75)" />
</svg>
