<?xml version="1.0" standalone="no"?>
<!DOCTYPE svg PUBLIC "-//W3C//DTD SVG 20010904//EN"
 "http://www.w3.org/TR/2001/REC-SVG-20010904/DTD/svg10.dtd">
<svg version="1.0" xmlns="http://www.w3.org/2000/svg"
 width="1280.000000pt" height="640.000000pt" viewBox="0 0 1280.000000 640.000000"
 preserveAspectRatio="xMidYMid meet">
<metadata>
Created by potrace 1.15, written by Peter Selinger 2001-2017
</metadata>
<g transform="translate(-225, 285) scale(0.100000,-0.100000)"
fill="#000000" stroke="none">
<path d="M2869 2751 c-33 -34 -36 -60 -13 -122 21 -57 21 -198 -1 -298 -8 -41
-17 -76 -19 -78 -5 -5 -65 151 -81 214 -11 41 -14 79 -9 129 6 65 4 72 -20
101 -63 75 -176 36 -176 -62 0 -35 6 -51 31 -79 16 -19 34 -50 40 -68 10 -37
12 -144 3 -201 l-7 -38 -28 33 c-66 75 -83 117 -81 191 2 80 -14 119 -57 137
-65 26 -141 -26 -141 -97 0 -28 8 -44 39 -75 32 -31 42 -51 51 -96 6 -31 23
-110 37 -176 24 -107 31 -122 68 -165 91 -102 97 -121 66 -193 -28 -65 -35
-119 -18 -142 21 -29 123 -46 322 -53 190 -6 361 7 422 32 34 14 38 25 33 90
-1 16 -11 46 -21 67 -35 69 -28 89 67 206 43 52 65 124 99 316 11 63 17 76 55
114 39 39 42 45 37 83 -10 77 -87 121 -145 83 -45 -29 -52 -45 -51 -120 2 -79
-15 -121 -74 -192 -33 -39 -35 -40 -41 -19 -10 38 -7 182 5 218 7 19 25 52 40
73 38 52 38 96 1 137 -24 26 -36 32 -72 32 -37 0 -48 -5 -73 -33 -28 -32 -29
-36 -23 -100 7 -78 -15 -179 -62 -286 -34 -76 -33 -76 -57 60 -20 116 -19 147
6 241 17 65 18 83 8 107 -27 65 -109 80 -160 29z m109 -57 c4 -38 -18 -59 -53
-50 -20 5 -25 12 -25 40 0 41 7 48 45 44 25 -3 30 -8 33 -34z m-304 -27 c12
-9 17 -23 14 -42 -2 -25 -8 -31 -33 -33 -19 -3 -33 2 -42 14 -17 24 -17 30 7
54 24 24 30 24 54 7z m580 0 c12 -9 17 -23 14 -42 -3 -27 -7 -30 -37 -30 -44
0 -61 35 -31 65 23 23 30 24 54 7z m-816 -119 c20 -20 15 -66 -8 -73 -37 -12
-60 3 -60 40 0 18 6 36 13 38 22 9 43 7 55 -5z m1060 0 c27 -27 7 -78 -29 -78
-21 0 -49 26 -49 45 0 35 53 58 78 33z m-788 -145 c0 -24 60 -140 97 -188 l36
-48 18 24 c21 27 69 168 69 203 0 54 15 30 36 -57 22 -92 58 -172 74 -162 19
12 83 118 115 190 l35 80 0 -65 c0 -68 23 -226 34 -237 3 -3 47 35 97 86 50
50 88 83 85 74 -3 -10 -13 -52 -22 -93 -15 -71 -38 -130 -50 -130 -2 0 -23 10
-46 21 -150 77 -516 78 -685 3 -41 -18 -59 -21 -69 -13 -7 5 -22 52 -34 102
-11 51 -23 99 -26 109 -3 9 36 -25 86 -75 50 -49 93 -87 96 -84 11 11 34 169
34 237 0 46 3 61 10 50 5 -8 10 -21 10 -27z m320 -313 c63 -6 133 -15 155 -21
38 -10 75 -34 75 -49 0 -3 -144 -6 -320 -7 -176 0 -320 3 -320 8 0 13 43 39
85 51 22 6 76 14 120 18 44 4 82 8 85 8 3 1 57 -3 120 -8z m132 -147 c67 -6
68 -6 60 -32 -4 -14 -7 -40 -6 -56 l0 -31 -50 7 c-28 4 -130 8 -226 8 -96 0
-198 -4 -226 -8 l-50 -7 0 31 c1 16 -3 42 -7 57 -7 26 -6 27 40 31 86 6 397 7
465 0z m35 -183 c40 -14 49 -36 21 -51 -52 -28 -429 -33 -530 -8 -39 10 -52
39 -26 55 38 24 471 27 535 4z"/>
</g>
</svg>
