<?xml version="1.0" encoding="UTF-8" standalone="no"?>
<svg
   version="1.0"
   width="1280.000000pt"
   height="640.000000pt"
   viewBox="0 0 1280.000000 640.000000"
   preserveAspectRatio="xMidYMid meet"
   id="svg8"
   sodipodi:docname="rook.svg"
   inkscape:version="1.2 (dc2aeda, 2022-05-15)"
   xmlns:inkscape="http://www.inkscape.org/namespaces/inkscape"
   xmlns:sodipodi="http://sodipodi.sourceforge.net/DTD/sodipodi-0.dtd"
   xmlns="http://www.w3.org/2000/svg"
   xmlns:svg="http://www.w3.org/2000/svg">
  <defs
     id="defs12" />
  <sodipodi:namedview
     id="namedview10"
     pagecolor="#ffffff"
     bordercolor="#000000"
     borderopacity="0.25"
     inkscape:showpageshadow="2"
     inkscape:pageopacity="0.0"
     inkscape:pagecheckerboard="0"
     inkscape:deskcolor="#d1d1d1"
     inkscape:document-units="pt"
     showgrid="false"
     inkscape:zoom="1.9846091"
     inkscape:cx="159.22531"
     inkscape:cy="97.248368"
     inkscape:window-width="1309"
     inkscape:window-height="456"
     inkscape:window-x="0"
     inkscape:window-y="25"
     inkscape:window-maximized="0"
     inkscape:current-layer="svg8" />
  <metadata
     id="metadata2">
Created by potrace 1.15, written by Peter Selinger 2001-2017
</metadata>
  <g
     transform="translate(-470.000000,285.000000) scale(0.100000,-0.100000)"
     fill="#000000"
     stroke="none"
     id="g6">
    <path
       d="M4897 2652 c-25 -26 -27 -35 -27 -109 l0 -81 79 -69 80 -68 0 -185 1 -185 -90 -90 -90 -90 0 -70 c0 -42 5 -76 12 -83 9 -9 120 -12 438 -12 493 0 460 -7 460 96 l0 59 -95 97 -95 97 0 179 0 180 80 68 80 69 0 86 c0 80 -2 87 -28 112 -25 24 -35 27 -103 27 -84 0 -122 -20 -112 -60 5 -17 1 -20 -26 -20 -26 0 -31 4 -31 23 0 45 -28 57 -132 57 -103 0 -128 -12 -128 -58 0 -17 -6 -22 -25 -22 -20 0 -25 5 -25 23 0 43 -29 57 -116 57 -75 0 -82 -2 -107 -28z m163 -75 c0 -36 19 -47 81 -47 76 0 89 6 89 41 l0 29 70 0 c66 0 70 -1 70 -23 0 -37 19 -47 92 -47 58 0 69 3 78 21 7 11 9 27 6 35 -4 11 7 14 53 14 67 0 71 -5 71 -78 0 -45 -2 -49 -60 -94 l-59 -48 -248 0 -248 0 -60 48 c-59 48 -60 50 -60 98 1 27 4 55 9 62 4 7 29 12 62 12 50 0 54 -2 54 -23z m450 -427 l0 -160 -206 2 -205 3 -2 158 -2 157 208 0 207 0 0 -160z m67 -272 c29 -29 53 -55 53 -58 0 -3 -147 -4 -327 -2 l-327 3 54 54 54 55 220 0 220 0 53 -52z m123 -163 l0 -35 -395 0 -395 0 0 35 0 35 395 0 395 0 0 -35z"
       id="path4" />
  </g>
  <path
     style="fill:#ffffff;stroke:#000000;stroke-width:0"
     d="m 28.217143,151.41521 v -4.28296 h 52.403266 52.403271 v 4.28296 4.28296 H 80.620409 28.217143 Z"
     id="path865"
     transform="scale(0.75)" />
  <path
     style="fill:#ffffff;stroke:#000000;stroke-width:0"
     d="m 56.085167,137.06415 -18.236774,-0.26139 6.829374,-6.92832 6.829374,-6.92832 h 29.049864 29.049865 l 6.96854,6.98191 6.96854,6.9819 -1.62159,0.32432 c -1.73495,0.34699 -35.924291,0.25866 -65.837193,-0.1701 z"
     id="path867"
     transform="scale(0.75)" />
  <path
     style="fill:#ffffff;stroke:#000000;stroke-width:0"
     d="m 65.881991,114.00271 -12.47097,-0.14399 v -6.45963 c 0,-3.55279 -0.149873,-12.958744 -0.333052,-20.902112 L 52.744917,72.054491 h 27.54244 27.542443 v 21.162857 21.162862 l -14.738421,-0.11676 c -8.106131,-0.0642 -20.350355,-0.18155 -27.209388,-0.26074 z"
     id="path869"
     transform="scale(0.75)" />
  <path
     style="fill:#ffffff;stroke:#000000;stroke-width:0"
     d="m 40.589439,56.812195 c -4.014436,-3.261329 -7.388942,-6.417559 -7.946186,-7.432194 -0.835967,-1.522139 -0.938574,-2.52236 -0.749505,-7.306225 0.120482,-3.048459 0.381065,-5.923613 0.579074,-6.38923 0.579533,-1.362772 3.099974,-1.92475 8.632398,-1.92475 5.953806,0 6.763148,0.418267 6.763148,3.495182 0,2.787702 1.466376,4.371696 4.721441,5.100148 3.255406,0.728527 14.699487,0.429406 16.262447,-0.425062 1.331802,-0.728095 2.19448,-3.078126 2.19448,-5.978009 v -2.192259 h 8.277988 c 9.280356,0 9.861604,0.197117 9.861604,3.344321 0,4.317342 2.045899,5.356031 11.085302,5.627937 8.97276,0.269901 10.63797,-0.171836 12.1099,-3.212445 0.72494,-1.497525 1.00708,-2.781721 0.81841,-3.725089 -0.38156,-1.907799 0.0543,-2.034724 6.98797,-2.034724 5.32396,0 5.82438,0.08516 7.13905,1.214966 1.37413,1.180906 1.41797,1.375125 1.56422,6.928316 0.127,4.822069 0.003,5.988468 -0.79726,7.476923 -0.56113,1.044195 -3.80223,4.075853 -7.94562,7.432194 l -6.99789,5.668622 H 80.358735 47.567063 Z"
     id="path871"
     transform="scale(0.75)" />
</svg>
