<?xml version="1.0" standalone="no"?>
<!DOCTYPE svg PUBLIC "-//W3C//DTD SVG 20010904//EN"
 "http://www.w3.org/TR/2001/REC-SVG-20010904/DTD/svg10.dtd">
<svg version="1.0" xmlns="http://www.w3.org/2000/svg"
 width="1280.000000pt" height="640.000000pt" viewBox="0 0 1280.000000 640.000000"
 preserveAspectRatio="xMidYMid meet">
<metadata>
Created by potrace 1.15, written by Peter Selinger 2001-2017
</metadata>
<g transform="translate(-1180,285.000000) scale(0.100000,-0.100000)"
fill="#000000" stroke="none">
<path d="M12356 2670 c-77 -23 -116 -103 -91 -186 13 -43 13 -49 -1 -57 -39
-22 -84 -71 -95 -104 -24 -72 7 -175 63 -207 l31 -19 -34 -17 c-51 -27 -126
-97 -154 -144 -33 -56 -55 -155 -55 -248 l0 -78 391 0 392 0 -6 103 c-3 56
-13 125 -22 153 -24 71 -79 140 -150 188 l-61 41 42 40 c47 45 60 87 49 160
-6 45 -51 104 -98 130 -17 9 -17 13 -2 57 42 121 -69 226 -199 188z m85 -60
c18 0 49 -40 49 -64 0 -13 -9 -43 -19 -66 -11 -24 -17 -49 -14 -56 2 -7 22
-24 44 -39 52 -34 79 -79 79 -133 0 -45 -17 -68 -88 -125 -29 -23 -17 -47 46
-90 129 -89 181 -168 190 -287 l5 -70 -323 0 -323 0 5 70 c9 121 54 187 198
293 58 43 62 67 15 104 -92 71 -86 168 14 239 44 32 51 59 26 104 -37 65 8
141 73 124 8 -2 18 -4 23 -4z"/> -->
</g>
</svg>
