<?xml version="1.0" standalone="no"?>
<!DOCTYPE svg PUBLIC "-//W3C//DTD SVG 20010904//EN"
 "http://www.w3.org/TR/2001/REC-SVG-20010904/DTD/svg10.dtd">
<svg version="1.0" xmlns="http://www.w3.org/2000/svg"
 width="1280.000000pt" height="640.000000pt" viewBox="0 0 1280.000000 640.000000"
 preserveAspectRatio="xMidYMid meet">
<metadata>
Created by potrace 1.15, written by Peter Selinger 2001-2017
</metadata>
<g transform="translate(-470.000000,285.000000) scale(0.100000,-0.100000)"
fill="#000000" stroke="none">
<path d="M4897 2652 c-25 -26 -27 -35 -27 -109 l0 -81 79 -69 80 -68 0 -185 1
-185 -90 -90 -90 -90 0 -70 c0 -42 5 -76 12 -83 9 -9 120 -12 438 -12 493 0
460 -7 460 96 l0 59 -95 97 -95 97 0 179 0 180 80 68 80 69 0 86 c0 80 -2 87
-28 112 -25 24 -35 27 -103 27 -84 0 -122 -20 -112 -60 5 -17 1 -20 -26 -20
-26 0 -31 4 -31 23 0 45 -28 57 -132 57 -103 0 -128 -12 -128 -58 0 -17 -6
-22 -25 -22 -20 0 -25 5 -25 23 0 43 -29 57 -116 57 -75 0 -82 -2 -107 -28z
m163 -75 c0 -36 19 -47 81 -47 76 0 89 6 89 41 l0 29 70 0 c66 0 70 -1 70 -23
0 -37 19 -47 92 -47 58 0 69 3 78 21 7 11 9 27 6 35 -4 11 7 14 53 14 67 0 71
-5 71 -78 0 -45 -2 -49 -60 -94 l-59 -48 -248 0 -248 0 -60 48 c-59 48 -60 50
-60 98 1 27 4 55 9 62 4 7 29 12 62 12 50 0 54 -2 54 -23z m450 -427 l0 -160
-206 2 -205 3 -2 158 -2 157 208 0 207 0 0 -160z m67 -272 c29 -29 53 -55 53
-58 0 -3 -147 -4 -327 -2 l-327 3 54 54 54 55 220 0 220 0 53 -52z m123 -163
l0 -35 -395 0 -395 0 0 35 0 35 395 0 395 0 0 -35z"/>
</g>
</svg>
