<?xml version="1.0" standalone="no"?>
<!DOCTYPE svg PUBLIC "-//W3C//DTD SVG 20010904//EN"
 "http://www.w3.org/TR/2001/REC-SVG-20010904/DTD/svg10.dtd">
<svg version="1.0" xmlns="http://www.w3.org/2000/svg"
 width="1280.000000pt" height="640.000000pt" viewBox="0 0 1280.000000 640.000000"
 preserveAspectRatio="xMidYMid meet">
<metadata>
Created by potrace 1.15, written by Peter Selinger 2001-2017
</metadata>
<g transform="translate(-700,487.000000) scale(0.100000,-0.100000)"
fill="#000000" stroke="none">
<path d="M7573 4811 c-48 -30 -60 -99 -28 -160 l15 -29 -46 -22 c-25 -12 -78
-54 -119 -94 -62 -61 -75 -79 -90 -129 -25 -86 -6 -161 68 -265 30 -42 31 -44
18 -90 -31 -109 -22 -137 51 -148 21 -4 38 -10 38 -13 0 -16 -98 -31 -196 -31
-122 0 -147 -9 -192 -71 l-31 -42 39 -58 c22 -32 50 -65 61 -73 19 -13 24 -13
45 1 14 9 82 23 157 33 161 22 203 33 251 65 l38 26 32 -21 c57 -35 117 -51
259 -70 95 -12 144 -23 157 -35 14 -13 23 -14 39 -6 19 11 101 121 101 137 0
15 -54 77 -84 95 -25 15 -50 19 -133 19 -101 0 -203 16 -203 32 0 4 11 8 25 8
35 0 82 26 89 48 3 9 -3 48 -14 86 l-19 68 39 57 c97 143 91 257 -21 370 -42
42 -125 101 -161 114 -15 5 -14 9 4 46 26 52 18 103 -22 143 -24 24 -36 28
-82 28 -35 0 -64 -7 -85 -19z m111 -67 c19 -18 20 -28 6 -55 -20 -37 -80 -18
-80 26 0 42 44 59 74 29z m-2 -306 c-3 -37 -3 -38 32 -38 34 0 36 -2 36 -34 0
-32 -3 -35 -32 -38 -31 -3 -33 -6 -33 -41 0 -35 -2 -37 -32 -37 -32 0 -33 2
-33 40 0 37 -2 40 -29 40 -24 0 -29 5 -33 30 -5 36 -3 40 34 40 26 0 28 3 28
41 0 39 1 40 33 37 31 -3 32 -5 29 -40z m145 -304 c3 -9 0 -20 -8 -25 -16 -11
-334 -8 -344 3 -4 4 -5 14 -2 23 10 23 345 23 354 -1z m-13 -100 c21 -8 20
-30 -1 -39 -10 -4 -75 -9 -144 -12 -157 -7 -238 14 -181 46 18 11 300 15 326
5z"/>
</g>
</svg>
