<?xml version="1.0" standalone="no"?>
<!DOCTYPE svg PUBLIC "-//W3C//DTD SVG 20010904//EN"
 "http://www.w3.org/TR/2001/REC-SVG-20010904/DTD/svg10.dtd">
<svg version="1.0" xmlns="http://www.w3.org/2000/svg"
 width="1280.000000pt" height="640.000000pt" viewBox="0 0 1280.000000 640.000000"
 preserveAspectRatio="xMidYMid meet">
<metadata>
Created by potrace 1.15, written by Peter Selinger 2001-2017
</metadata>
<g transform="translate(-935,487.000000) scale(0.100000,-0.100000)"
fill="#000000" stroke="none">
<path d="M9930 4651 l-32 -39 -54 25 c-30 14 -76 26 -101 26 l-46 2 2 -70 c2
-84 -10 -123 -109 -334 -40 -85 -83 -184 -95 -222 -22 -65 -23 -68 -5 -96 25
-42 62 -68 116 -83 32 -9 51 -10 63 -3 12 8 18 5 26 -11 6 -12 20 -22 32 -24
17 -3 32 12 72 71 27 41 64 86 82 101 36 31 109 70 116 63 10 -10 -38 -100
-95 -180 -33 -45 -66 -95 -75 -112 -12 -24 -37 -120 -37 -140 0 -3 173 -5 384
-5 l383 0 7 46 c22 167 -20 436 -91 579 -88 175 -216 288 -347 304 -47 6 -50
8 -63 48 -14 42 -62 93 -88 93 -8 0 -28 -18 -45 -39z m208 -196 c104 -31 244
-197 294 -350 30 -91 48 -205 48 -304 0 -72 -15 -106 -42 -96 -21 8 -28 36
-28 121 0 94 -24 231 -54 304 -54 132 -164 251 -266 287 -48 17 -63 36 -37 46
20 9 31 8 85 -8z m-291 -82 c3 -7 -13 -31 -34 -53 -29 -32 -46 -42 -73 -43
-51 -3 -53 32 -6 79 30 30 41 35 72 32 21 -2 39 -8 41 -15z m-257 -361 c0 -25
-21 -50 -45 -54 -16 -2 -19 2 -17 22 4 41 62 71 62 32z"/>
</g>
</svg>
