<?xml version="1.0" standalone="no"?>
<!DOCTYPE svg PUBLIC "-//W3C//DTD SVG 20010904//EN"
 "http://www.w3.org/TR/2001/REC-SVG-20010904/DTD/svg10.dtd">
<svg version="1.0" xmlns="http://www.w3.org/2000/svg"
 width="1280.000000pt" height="640.000000pt" viewBox="0 0 1280.000000 640.000000"
 preserveAspectRatio="xMidYMid meet">
<metadata>
Created by potrace 1.15, written by Peter Selinger 2001-2017
</metadata>
<g transform="translate(-225,487.000000) scale(0.100000,-0.100000)"
fill="#000000" stroke="none">
<path d="M2852 4772 c-35 -27 -41 -68 -20 -135 23 -73 22 -173 -1 -292 l-17
-90 -23 50 c-48 106 -73 198 -71 260 1 33 2 72 2 87 2 65 -72 111 -136 84 -42
-17 -57 -38 -63 -84 -4 -33 -1 -44 26 -74 45 -51 51 -77 51 -206 l-1 -117 -39
43 c-62 69 -84 123 -76 190 5 47 3 63 -14 90 -34 55 -87 66 -140 30 -62 -42
-59 -125 5 -173 28 -22 33 -33 39 -85 4 -32 20 -109 35 -169 25 -97 35 -118
79 -173 27 -35 57 -78 66 -96 16 -31 16 -35 -9 -103 -43 -120 -35 -134 90
-166 96 -24 454 -24 564 0 118 26 133 55 85 169 -15 36 -23 70 -20 84 3 12 34
57 67 100 59 74 62 81 90 196 15 66 31 143 34 172 6 43 12 54 39 71 69 45 65
147 -7 181 -44 21 -80 13 -119 -27 -29 -29 -30 -32 -23 -93 6 -56 3 -70 -18
-112 -14 -27 -41 -67 -61 -89 l-35 -40 -3 60 c-7 155 6 218 50 259 75 67 -7
198 -103 166 -60 -20 -70 -41 -67 -141 2 -77 -1 -101 -27 -179 -17 -50 -39
-107 -49 -127 l-19 -36 -16 90 c-21 113 -22 227 -2 283 22 62 19 103 -10 134
-29 32 -96 36 -133 8z m96 -44 c17 -17 15 -53 -3 -68 -38 -31 -96 27 -65 65
15 18 51 20 68 3z m-286 -62 c23 -35 0 -68 -43 -64 -29 3 -34 7 -37 33 -3 19
2 33 14 42 19 14 54 8 66 -11z m572 11 c12 -9 17 -23 14 -42 -2 -24 -8 -31
-31 -33 -54 -6 -77 43 -35 72 27 19 30 19 52 3z m-816 -119 c17 -17 15 -53 -3
-68 -20 -17 -62 -5 -70 20 -14 44 41 80 73 48z m1056 -4 c19 -18 20 -28 6 -55
-20 -37 -80 -18 -80 26 0 42 44 59 74 29z m-279 -485 c28 -10 41 -21 43 -35
l3 -22 -325 1 c-310 1 -326 2 -326 19 0 42 109 58 365 54 135 -3 213 -8 240
-17z m-41 -218 c21 -5 46 -17 55 -25 13 -14 13 -18 1 -30 -13 -12 -40 -13
-160 -7 -80 5 -205 5 -279 0 -131 -9 -161 -4 -161 22 0 16 57 38 121 48 76 12
367 6 423 -8z"/>
</g>
</svg>
