<?xml version="1.0" encoding="UTF-8" standalone="no"?>
<svg
   version="1.0"
   width="1280.000000pt"
   height="640.000000pt"
   viewBox="0 0 1280.000000 640.000000"
   preserveAspectRatio="xMidYMid meet"
   id="svg8"
   sodipodi:docname="bishop.svg"
   inkscape:version="1.2 (dc2aeda, 2022-05-15)"
   xmlns:inkscape="http://www.inkscape.org/namespaces/inkscape"
   xmlns:sodipodi="http://sodipodi.sourceforge.net/DTD/sodipodi-0.dtd"
   xmlns="http://www.w3.org/2000/svg"
   xmlns:svg="http://www.w3.org/2000/svg">
  <defs
     id="defs12" />
  <sodipodi:namedview
     id="namedview10"
     pagecolor="#ffffff"
     bordercolor="#000000"
     borderopacity="0.25"
     inkscape:showpageshadow="2"
     inkscape:pageopacity="0.0"
     inkscape:pagecheckerboard="0"
     inkscape:deskcolor="#d1d1d1"
     inkscape:document-units="pt"
     showgrid="false"
     inkscape:zoom="2.6747416"
     inkscape:cx="154.78131"
     inkscape:cy="135.71405"
     inkscape:window-width="1309"
     inkscape:window-height="456"
     inkscape:window-x="0"
     inkscape:window-y="25"
     inkscape:window-maximized="0"
     inkscape:current-layer="svg8" />
  <metadata
     id="metadata2">
Created by potrace 1.15, written by Peter Selinger 2001-2017
</metadata>
  <g
     transform="translate(-700,487.000000) scale(0.100000,-0.100000)"
     fill="#000000"
     stroke="none"
     id="g6">
    <path
       d="M7573 4811 c-48 -30 -60 -99 -28 -160 l15 -29 -46 -22 c-25 -12 -78 -54 -119 -94 -62 -61 -75 -79 -90 -129 -25 -86 -6 -161 68 -265 30 -42 31 -44 18 -90 -31 -109 -22 -137 51 -148 21 -4 38 -10 38 -13 0 -16 -98 -31 -196 -31 -122 0 -147 -9 -192 -71 l-31 -42 39 -58 c22 -32 50 -65 61 -73 19 -13 24 -13 45 1 14 9 82 23 157 33 161 22 203 33 251 65 l38 26 32 -21 c57 -35 117 -51 259 -70 95 -12 144 -23 157 -35 14 -13 23 -14 39 -6 19 11 101 121 101 137 0 15 -54 77 -84 95 -25 15 -50 19 -133 19 -101 0 -203 16 -203 32 0 4 11 8 25 8 35 0 82 26 89 48 3 9 -3 48 -14 86 l-19 68 39 57 c97 143 91 257 -21 370 -42 42 -125 101 -161 114 -15 5 -14 9 4 46 26 52 18 103 -22 143 -24 24 -36 28 -82 28 -35 0 -64 -7 -85 -19z m111 -67 c19 -18 20 -28 6 -55 -20 -37 -80 -18 -80 26 0 42 44 59 74 29z m-2 -306 c-3 -37 -3 -38 32 -38 34 0 36 -2 36 -34 0 -32 -3 -35 -32 -38 -31 -3 -33 -6 -33 -41 0 -35 -2 -37 -32 -37 -32 0 -33 2 -33 40 0 37 -2 40 -29 40 -24 0 -29 5 -33 30 -5 36 -3 40 34 40 26 0 28 3 28 41 0 39 1 40 33 37 31 -3 32 -5 29 -40z m145 -304 c3 -9 0 -20 -8 -25 -16 -11 -334 -8 -344 3 -4 4 -5 14 -2 23 10 23 345 23 354 -1z m-13 -100 c21 -8 20 -30 -1 -39 -10 -4 -75 -9 -144 -12 -157 -7 -238 14 -181 46 18 11 300 15 326 5z"
       id="path4" />
  </g>
  <path
     style="fill:#ffffff;stroke:#000000;stroke-width:0"
     d="M 84.804636,25.786867 C 79.598601,23.036806 81.006743,15.14165 86.703267,15.14165 c 2.081253,0 4.427887,1.400167 5.643734,3.36745 0.959954,1.553237 0.935981,2.190916 -0.171815,4.570331 -1.517809,3.260075 -4.3529,4.301494 -7.37055,2.707436 z"
     id="path865"
     transform="scale(0.75)" />
  <path
     style="fill:#ffffff;stroke:#000000;stroke-width:0"
     d="m 84.774402,82.378024 c -1.425747,-0.245113 -1.647029,-0.874216 -1.882405,-5.351657 -0.249968,-4.755019 -0.619419,-5.243731 -3.964101,-5.243731 -1.282902,0 -2.436043,-0.222345 -2.923355,-0.563671 -0.941176,-0.659226 -1.735547,-3.729743 -1.544603,-5.970421 0.161882,-1.899641 1.126627,-2.425771 4.46171,-2.433226 3.470964,-0.0078 3.728351,-0.363597 3.977836,-5.499369 0.107934,-2.221876 0.363247,-4.250074 0.567363,-4.507109 0.721534,-0.908598 6.355414,-0.335683 7.087137,0.720699 0.18834,0.271905 0.249008,2.104147 0.134817,4.071649 -0.282184,4.862029 -0.196365,4.96331 4.424455,5.221577 2.133137,0.119226 3.767307,0.390801 4.049469,0.672963 0.311667,0.311667 0.47307,1.624982 0.47307,3.849325 0,4.05961 -0.09387,4.166028 -4.21567,4.779069 -1.586076,0.2359 -3.137045,0.681804 -3.446599,0.990898 -0.393974,0.39339 -0.621668,1.678618 -0.758963,4.284004 -0.141058,2.676794 -0.360657,3.886532 -0.78199,4.307865 -0.609322,0.609321 -3.809673,0.988926 -5.658171,0.671135 z"
     id="path867"
     transform="scale(0.75)" />
  <path
     style="fill:#ffffff;stroke:#000000;stroke-width:0"
     d="m 69.032762,101.66681 c -2.70948,-0.18172 -5.041884,-0.51798 -5.346522,-0.77081 -0.335103,-0.27811 -0.497687,-0.957698 -0.428003,-1.789008 0.106276,-1.267825 0.211549,-1.365013 1.940832,-1.791787 3.430917,-0.846725 10.466738,-1.256029 21.521911,-1.252021 13.87138,0.005 22.09166,0.746271 23.2092,2.092826 0.6457,0.778015 0.13359,2.30111 -1.03019,3.06399 -0.91971,0.60289 -2.45506,0.66369 -18.033193,0.71408 -9.365338,0.0303 -19.190654,-0.09 -21.834035,-0.26727 z"
     id="path869"
     transform="scale(0.75)" />
  <path
     style="fill:#ffffff;stroke:#000000;stroke-width:0"
     d="m 71.0349,117.76116 c -5.045858,-0.70473 -8.225093,-1.9208 -8.225093,-3.14613 0,-1.08299 2.385029,-2.42322 5.07169,-2.84996 1.443907,-0.22935 10.129596,-0.49995 19.603591,-0.61075 17.576562,-0.20557 20.708352,-0.0286 22.121042,1.24985 1.72706,1.56297 0.11594,4.00354 -2.89993,4.39291 -7.887743,1.01838 -30.840873,1.63873 -35.6713,0.96408 z"
     id="path871"
     transform="scale(0.75)" />
</svg>
