<?xml version="1.0" standalone="no"?>
<!DOCTYPE svg PUBLIC "-//W3C//DTD SVG 20010904//EN"
 "http://www.w3.org/TR/2001/REC-SVG-20010904/DTD/svg10.dtd">
<svg version="1.0" xmlns="http://www.w3.org/2000/svg"
 width="1280.000000pt" height="640.000000pt" viewBox="0 0 1280.000000 640.000000"
 preserveAspectRatio="xMidYMid meet">
<metadata>
Created by potrace 1.15, written by Peter Selinger 2001-2017
</metadata>
<g transform="translate(6,487.000000) scale(0.100000,-0.100000)"
fill="#000000" stroke="none">
<path d="M510 4786 c-10 -32 -15 -36 -46 -36 -32 0 -34 -2 -34 -34 0 -30 5
-38 40 -57 22 -13 40 -30 40 -38 0 -8 -21 -37 -47 -63 -42 -42 -47 -53 -51
-103 -2 -30 -6 -55 -9 -55 -2 0 -17 9 -32 21 -65 48 -183 55 -261 14 -40 -21
-87 -79 -99 -122 -23 -82 -9 -130 76 -260 63 -95 80 -141 89 -246 10 -110 31
-135 138 -163 123 -33 410 -26 517 11 72 26 86 46 94 134 11 112 34 176 103
280 66 99 77 134 70 212 -15 151 -189 228 -338 151 l-58 -30 -7 55 c-6 48 -12
60 -51 97 -54 52 -56 77 -9 106 29 18 35 28 35 56 0 32 -2 34 -34 34 -29 0
-34 4 -42 33 -8 26 -15 33 -41 35 -28 3 -32 -1 -43 -32z m-195 -406 c98 -47
167 -140 180 -240 11 -80 14 -88 40 -94 41 -10 65 9 65 53 0 143 145 301 275
301 96 0 155 -53 155 -139 0 -73 -81 -209 -155 -260 -29 -19 -47 -23 -106 -23
-39 1 -104 6 -145 12 -52 8 -95 8 -147 1 -75 -11 -138 -15 -197 -12 -29 1 -45
12 -95 64 -104 109 -140 220 -96 293 38 62 145 83 226 44z m464 -564 c19 -6
36 -16 38 -23 9 -26 -32 -31 -150 -21 -80 7 -154 7 -234 0 -114 -10 -153 -5
-153 19 0 18 54 31 155 38 120 9 297 2 344 -13z"/>
<path d="M183 4349 c-40 -12 -73 -53 -73 -92 0 -46 38 -116 95 -173 45 -45 56
-51 105 -57 61 -7 128 5 142 25 21 31 -12 152 -57 212 -55 70 -141 105 -212
85z"/>
<path d="M833 4350 c-91 -21 -165 -113 -184 -228 -13 -81 3 -94 106 -94 74 0
77 1 123 39 62 52 112 135 112 186 0 29 -7 46 -29 68 -16 16 -38 29 -49 29
-11 0 -26 2 -34 4 -7 2 -28 0 -45 -4z"/>
</g>
</svg>
