<?xml version="1.0" encoding="UTF-8" standalone="no"?>
<svg
   version="1.0"
   width="1280.000000pt"
   height="640.000000pt"
   viewBox="0 0 1280.000000 640.000000"
   preserveAspectRatio="xMidYMid meet"
   id="svg12"
   sodipodi:docname="king.svg"
   inkscape:version="1.2 (dc2aeda, 2022-05-15)"
   xmlns:inkscape="http://www.inkscape.org/namespaces/inkscape"
   xmlns:sodipodi="http://sodipodi.sourceforge.net/DTD/sodipodi-0.dtd"
   xmlns="http://www.w3.org/2000/svg"
   xmlns:svg="http://www.w3.org/2000/svg">
  <defs
     id="defs16" />
  <sodipodi:namedview
     id="namedview14"
     pagecolor="#ffffff"
     bordercolor="#000000"
     borderopacity="0.25"
     inkscape:showpageshadow="2"
     inkscape:pageopacity="0.0"
     inkscape:pagecheckerboard="0"
     inkscape:deskcolor="#d1d1d1"
     inkscape:document-units="pt"
     showgrid="false"
     inkscape:zoom="3.2709404"
     inkscape:cx="112.20015"
     inkscape:cy="52.889988"
     inkscape:window-width="1309"
     inkscape:window-height="456"
     inkscape:window-x="0"
     inkscape:window-y="25"
     inkscape:window-maximized="0"
     inkscape:current-layer="svg12" />
  <metadata
     id="metadata2">
Created by potrace 1.15, written by Peter Selinger 2001-2017
</metadata>
  <g
     transform="translate(6,487.000000) scale(0.100000,-0.100000)"
     fill="#000000"
     stroke="none"
     id="g10">
    <path
       d="M510 4786 c-10 -32 -15 -36 -46 -36 -32 0 -34 -2 -34 -34 0 -30 5 -38 40 -57 22 -13 40 -30 40 -38 0 -8 -21 -37 -47 -63 -42 -42 -47 -53 -51 -103 -2 -30 -6 -55 -9 -55 -2 0 -17 9 -32 21 -65 48 -183 55 -261 14 -40 -21 -87 -79 -99 -122 -23 -82 -9 -130 76 -260 63 -95 80 -141 89 -246 10 -110 31 -135 138 -163 123 -33 410 -26 517 11 72 26 86 46 94 134 11 112 34 176 103 280 66 99 77 134 70 212 -15 151 -189 228 -338 151 l-58 -30 -7 55 c-6 48 -12 60 -51 97 -54 52 -56 77 -9 106 29 18 35 28 35 56 0 32 -2 34 -34 34 -29 0 -34 4 -42 33 -8 26 -15 33 -41 35 -28 3 -32 -1 -43 -32z m-195 -406 c98 -47 167 -140 180 -240 11 -80 14 -88 40 -94 41 -10 65 9 65 53 0 143 145 301 275 301 96 0 155 -53 155 -139 0 -73 -81 -209 -155 -260 -29 -19 -47 -23 -106 -23 -39 1 -104 6 -145 12 -52 8 -95 8 -147 1 -75 -11 -138 -15 -197 -12 -29 1 -45 12 -95 64 -104 109 -140 220 -96 293 38 62 145 83 226 44z m464 -564 c19 -6 36 -16 38 -23 9 -26 -32 -31 -150 -21 -80 7 -154 7 -234 0 -114 -10 -153 -5 -153 19 0 18 54 31 155 38 120 9 297 2 344 -13z"
       id="path4" />
    <path
       d="M183 4349 c-40 -12 -73 -53 -73 -92 0 -46 38 -116 95 -173 45 -45 56 -51 105 -57 61 -7 128 5 142 25 21 31 -12 152 -57 212 -55 70 -141 105 -212 85z"
       id="path6" />
    <path
       d="M833 4350 c-91 -21 -165 -113 -184 -228 -13 -81 3 -94 106 -94 74 0 77 1 123 39 62 52 112 135 112 186 0 29 -7 46 -29 68 -16 16 -38 29 -49 29 -11 0 -26 2 -34 4 -7 2 -28 0 -45 -4z"
       id="path8" />
  </g>
  <path
     style="fill:#ffffff;stroke:#000000;stroke-width:0"
     d="m 48.050046,146.29268 c -3.573093,-1.11501 -3.273206,-3.36807 0.630939,-4.74026 2.348243,-0.82535 7.639031,-1.71842 13.992123,-2.36186 7.540375,-0.76368 32.321958,-0.75849 39.687592,0.008 7.83481,0.81564 11.05765,1.64746 13.44858,3.47112 1.39088,1.06087 1.29107,2.39783 -0.24618,3.29763 -1.54558,0.90466 -9.15913,1.0266 -17.988996,0.2881 -8.686535,-0.7265 -24.063513,-0.73383 -32.299315,-0.0154 -7.056498,0.61556 -15.33921,0.64074 -17.224743,0.0523 z"
     id="path869"
     transform="scale(0.75)" />
  <path
     style="fill:#ffffff;stroke:#000000;stroke-width:0"
     d="m 46.775539,118.60631 c -4.591637,-0.20364 -5.627462,-0.63613 -9.22374,-3.85118 -8.768916,-7.83935 -15.622744,-17.44805 -18.430292,-25.838283 -2.706285,-8.087615 -1.761241,-15.026215 2.692292,-19.767053 3.785399,-4.029602 9.421382,-6.170964 16.241742,-6.170964 5.38789,0 9.611365,1.135995 14.375864,3.8667 9.487271,5.437495 16.737269,14.149126 19.807832,23.801184 0.983259,3.090787 1.287645,4.517719 2.053025,9.624396 1.121769,7.48451 1.733195,8.76116 4.604339,9.6138 3.213932,0.95443 5.76537,0.49313 7.423449,-1.34216 1.291372,-1.4294 1.604132,-2.53384 1.861288,-6.5727 0.341727,-5.367192 1.371596,-9.242304 3.837957,-14.441148 5.232538,-11.029676 15.206625,-20.255029 25.361735,-23.457883 8.20705,-2.58845 17.62469,-0.823075 22.79698,4.273386 3.69222,3.63809 5.58711,9.467945 4.81011,14.798887 -1.5832,10.86234 -11.95971,27.056678 -21.10861,32.943658 -3.26402,2.10028 -5.52602,2.5609 -12.59653,2.56513 -5.64454,0.003 -13.015861,-0.55228 -20.636266,-1.55557 -6.510167,-0.85712 -12.964225,-0.81419 -20.403233,0.13573 -10.015783,1.27895 -16.738092,1.67255 -23.467942,1.37407 z m 15.286124,-6.53722 c 3.402939,-0.72621 5.918295,-2.04826 6.590242,-3.4638 2.118223,-4.46228 -1.764771,-18.971173 -7.23177,-27.021688 -2.8352,-4.175018 -8.489433,-8.748027 -13.345808,-10.793772 -3.624322,-1.526743 -6.231333,-2.085032 -9.859017,-2.111297 -5.478638,-0.03967 -8.774386,1.22459 -11.898523,4.564302 -4.242506,4.535252 -4.807817,9.452976 -1.878087,16.337741 2.118746,4.978979 6.249298,10.787384 11.136403,15.660064 5.316099,5.30041 6.930336,6.23441 12.282953,7.10694 3.438944,0.56058 10.963043,0.41306 14.203607,-0.27849 z m 56.122647,-0.31118 c 4.36558,-1.31326 13.00698,-9.58617 17.26142,-16.525359 1.79461,-2.927092 3.47337,-6.625725 4.11534,-9.066908 0.76156,-2.895915 0.55447,-7.183519 -0.44805,-9.27644 -0.96204,-2.008399 -4.60619,-5.648494 -6.73519,-6.727687 -2.92365,-1.482005 -9.54458,-1.930354 -13.60465,-0.921267 -11.55611,2.872152 -20.802902,13.883949 -24.038974,28.627477 -0.89644,4.084184 -0.991764,9.406404 -0.194617,10.866054 1.6195,2.96545 5.601611,3.84013 16.437671,3.61058 3.87923,-0.0822 6.14313,-0.2664 7.20705,-0.58645 z"
     id="path871"
     transform="scale(0.75)" />
</svg>
