<?xml version="1.0" encoding="UTF-8" standalone="no"?>
<svg
   version="1.0"
   width="1280.000000pt"
   height="640.000000pt"
   viewBox="0 0 1280.000000 640.000000"
   preserveAspectRatio="xMidYMid meet"
   id="svg8"
   sodipodi:docname="knight.svg"
   inkscape:version="1.2 (dc2aeda, 2022-05-15)"
   xmlns:inkscape="http://www.inkscape.org/namespaces/inkscape"
   xmlns:sodipodi="http://sodipodi.sourceforge.net/DTD/sodipodi-0.dtd"
   xmlns="http://www.w3.org/2000/svg"
   xmlns:svg="http://www.w3.org/2000/svg">
  <defs
     id="defs12" />
  <sodipodi:namedview
     id="namedview10"
     pagecolor="#ffffff"
     bordercolor="#000000"
     borderopacity="0.25"
     inkscape:showpageshadow="2"
     inkscape:pageopacity="0.0"
     inkscape:pagecheckerboard="0"
     inkscape:deskcolor="#d1d1d1"
     inkscape:document-units="pt"
     showgrid="false"
     inkscape:zoom="2.3850418"
     inkscape:cx="166.03482"
     inkscape:cy="94.337968"
     inkscape:window-width="1309"
     inkscape:window-height="456"
     inkscape:window-x="0"
     inkscape:window-y="25"
     inkscape:window-maximized="0"
     inkscape:current-layer="svg8" />
  <metadata
     id="metadata2">
Created by potrace 1.15, written by Peter Selinger 2001-2017
</metadata>
  <g
     transform="translate(-935,487.000000) scale(0.100000,-0.100000)"
     fill="#000000"
     stroke="none"
     id="g6">
    <path
       d="M9930 4651 l-32 -39 -54 25 c-30 14 -76 26 -101 26 l-46 2 2 -70 c2 -84 -10 -123 -109 -334 -40 -85 -83 -184 -95 -222 -22 -65 -23 -68 -5 -96 25 -42 62 -68 116 -83 32 -9 51 -10 63 -3 12 8 18 5 26 -11 6 -12 20 -22 32 -24 17 -3 32 12 72 71 27 41 64 86 82 101 36 31 109 70 116 63 10 -10 -38 -100 -95 -180 -33 -45 -66 -95 -75 -112 -12 -24 -37 -120 -37 -140 0 -3 173 -5 384 -5 l383 0 7 46 c22 167 -20 436 -91 579 -88 175 -216 288 -347 304 -47 6 -50 8 -63 48 -14 42 -62 93 -88 93 -8 0 -28 -18 -45 -39z m208 -196 c104 -31 244 -197 294 -350 30 -91 48 -205 48 -304 0 -72 -15 -106 -42 -96 -21 8 -28 36 -28 121 0 94 -24 231 -54 304 -54 132 -164 251 -266 287 -48 17 -63 36 -37 46 20 9 31 8 85 -8z m-291 -82 c3 -7 -13 -31 -34 -53 -29 -32 -46 -42 -73 -43 -51 -3 -53 32 -6 79 30 30 41 35 72 32 21 -2 39 -8 41 -15z m-257 -361 c0 -25 -21 -50 -45 -54 -16 -2 -19 2 -17 22 4 41 62 71 62 32z"
       id="path4" />
  </g>
  <path
     style="fill:#ffffff;stroke:#000000;stroke-width:0"
     d="m 24.421598,121.10753 c -0.287456,-0.28745 -0.522646,-1.057 -0.522646,-1.71009 0,-4.16297 5.987139,-9.10658 7.532285,-6.21944 0.635676,1.18777 0.538995,2.06166 -0.455323,4.11565 -1.3214,2.72965 -5.314823,5.05338 -6.554316,3.81388 z"
     id="path865"
     transform="scale(0.75)" />
  <path
     style="fill:#ffffff;stroke:#000000;stroke-width:0"
     d="m 48.112363,78.000298 c -1.382314,-1.095363 -1.470795,-2.359718 -0.322636,-4.610296 1.148491,-2.251229 5.210932,-6.543888 7.415745,-7.835994 1.630275,-0.955405 2.186467,-1.055262 5.073221,-0.910834 3.736956,0.186966 5.830692,1.017673 5.615385,2.227951 -0.374633,2.105881 -6.21297,8.827012 -9.175989,10.563457 -2.670161,1.564819 -6.986789,1.848582 -8.605726,0.565716 z"
     id="path867"
     transform="scale(0.75)" />
  <path
     style="fill:#ffffff;stroke:#000000;stroke-width:0"
     d="m 143.9628,154.21001 c -1.53409,-1.69417 -1.89304,-3.70239 -2.27052,-12.70306 -0.56423,-13.45331 -1.61798,-21.93046 -3.95015,-31.77801 -2.17907,-9.20106 -5.49823,-16.921823 -10.58209,-24.615129 -8.14977,-12.332899 -18.08683,-21.005113 -28.768738,-25.106894 -3.571552,-1.371452 -6.149734,-3.081079 -6.149734,-4.07797 0,-1.101915 3.612202,-2.390557 5.863757,-2.091878 3.170195,0.420542 9.325605,2.512354 12.319235,4.186484 10.90641,6.099213 24.30516,22.211166 30.84076,37.085897 5.11724,11.64663 8.33995,27.05464 9.08377,43.43023 0.3105,6.8357 -0.23257,11.70178 -1.61796,14.49747 -0.81444,1.64351 -1.12586,1.90283 -2.41555,2.01142 -1.1136,0.0938 -1.69676,-0.11408 -2.35278,-0.83856 z"
     id="path869"
     transform="scale(0.75)" />
</svg>
