<?xml version="1.0" encoding="UTF-8" standalone="no"?>
<svg
   version="1.0"
   width="1280.000000pt"
   height="640.000000pt"
   viewBox="0 0 1280.000000 640.000000"
   preserveAspectRatio="xMidYMid meet"
   id="svg8"
   sodipodi:docname="queen.svg"
   inkscape:version="1.2 (dc2aeda, 2022-05-15)"
   xmlns:inkscape="http://www.inkscape.org/namespaces/inkscape"
   xmlns:sodipodi="http://sodipodi.sourceforge.net/DTD/sodipodi-0.dtd"
   xmlns="http://www.w3.org/2000/svg"
   xmlns:svg="http://www.w3.org/2000/svg">
  <defs
     id="defs12" />
  <sodipodi:namedview
     id="namedview10"
     pagecolor="#ffffff"
     bordercolor="#000000"
     borderopacity="0.25"
     inkscape:showpageshadow="2"
     inkscape:pageopacity="0.0"
     inkscape:pagecheckerboard="0"
     inkscape:deskcolor="#d1d1d1"
     inkscape:document-units="pt"
     showgrid="false"
     inkscape:zoom="1.9696431"
     inkscape:cx="179.72799"
     inkscape:cy="39.601082"
     inkscape:window-width="1309"
     inkscape:window-height="456"
     inkscape:window-x="0"
     inkscape:window-y="25"
     inkscape:window-maximized="0"
     inkscape:current-layer="svg8" />
  <metadata
     id="metadata2">
Created by potrace 1.15, written by Peter Selinger 2001-2017
</metadata>
  <g
     transform="translate(-225,487.000000) scale(0.100000,-0.100000)"
     fill="#000000"
     stroke="none"
     id="g6">
    <path
       d="M2852 4772 c-35 -27 -41 -68 -20 -135 23 -73 22 -173 -1 -292 l-17 -90 -23 50 c-48 106 -73 198 -71 260 1 33 2 72 2 87 2 65 -72 111 -136 84 -42 -17 -57 -38 -63 -84 -4 -33 -1 -44 26 -74 45 -51 51 -77 51 -206 l-1 -117 -39 43 c-62 69 -84 123 -76 190 5 47 3 63 -14 90 -34 55 -87 66 -140 30 -62 -42 -59 -125 5 -173 28 -22 33 -33 39 -85 4 -32 20 -109 35 -169 25 -97 35 -118 79 -173 27 -35 57 -78 66 -96 16 -31 16 -35 -9 -103 -43 -120 -35 -134 90 -166 96 -24 454 -24 564 0 118 26 133 55 85 169 -15 36 -23 70 -20 84 3 12 34 57 67 100 59 74 62 81 90 196 15 66 31 143 34 172 6 43 12 54 39 71 69 45 65 147 -7 181 -44 21 -80 13 -119 -27 -29 -29 -30 -32 -23 -93 6 -56 3 -70 -18 -112 -14 -27 -41 -67 -61 -89 l-35 -40 -3 60 c-7 155 6 218 50 259 75 67 -7 198 -103 166 -60 -20 -70 -41 -67 -141 2 -77 -1 -101 -27 -179 -17 -50 -39 -107 -49 -127 l-19 -36 -16 90 c-21 113 -22 227 -2 283 22 62 19 103 -10 134 -29 32 -96 36 -133 8z m96 -44 c17 -17 15 -53 -3 -68 -38 -31 -96 27 -65 65 15 18 51 20 68 3z m-286 -62 c23 -35 0 -68 -43 -64 -29 3 -34 7 -37 33 -3 19 2 33 14 42 19 14 54 8 66 -11z m572 11 c12 -9 17 -23 14 -42 -2 -24 -8 -31 -31 -33 -54 -6 -77 43 -35 72 27 19 30 19 52 3z m-816 -119 c17 -17 15 -53 -3 -68 -20 -17 -62 -5 -70 20 -14 44 41 80 73 48z m1056 -4 c19 -18 20 -28 6 -55 -20 -37 -80 -18 -80 26 0 42 44 59 74 29z m-279 -485 c28 -10 41 -21 43 -35 l3 -22 -325 1 c-310 1 -326 2 -326 19 0 42 109 58 365 54 135 -3 213 -8 240 -17z m-41 -218 c21 -5 46 -17 55 -25 13 -14 13 -18 1 -30 -13 -12 -40 -13 -160 -7 -80 5 -205 5 -279 0 -131 -9 -161 -4 -161 22 0 16 57 38 121 48 76 12 367 6 423 -8z"
       id="path4" />
  </g>
  <path
     style="fill:#ffffff;stroke:#000000;stroke-width:0"
     d="m 63.970979,113.69973 c -8.796009,-0.18542 -16.506797,-0.51044 -17.135083,-0.72226 -2.745553,-0.92563 -0.387677,-4.13596 4.066778,-5.53706 7.485701,-2.35454 28.977004,-3.33898 51.903446,-2.37751 20.00859,0.8391 23.78935,1.4196 26.87164,4.12589 1.17382,1.03063 1.77277,2.05413 1.915,3.27239 l 0.20695,1.77271 -25.91799,-0.0985 c -14.254898,-0.0542 -33.114731,-0.25023 -41.910741,-0.43565 z"
     id="path865"
     transform="scale(0.75)" />
  <path
     style="fill:#ffffff;stroke:#000000;stroke-width:0"
     d="m 50.15923,143.63854 c -2.088359,-0.81304 -2.360508,-2.44933 -0.636068,-3.82436 1.844808,-1.47099 8.060168,-3.50991 14.030197,-4.60253 8.850144,-1.61973 48.925701,-0.943 56.773011,0.95869 2.87257,0.69613 6.57713,2.52495 7.75476,3.82827 1.14538,1.26763 0.69659,2.47111 -1.30806,3.50776 -1.37911,0.71316 -3.52436,0.75381 -19.10439,0.362 -20.28824,-0.51021 -18.243044,-0.50768 -39.636051,-0.0491 -11.164847,0.23936 -16.944409,0.1809 -17.873399,-0.18077 z"
     id="path867"
     transform="scale(0.75)" />
  <path
     style="fill:#ffffff;stroke:#000000;stroke-width:0"
     d="m 15.935941,50.780738 c -1.721013,-0.695369 -3.243286,-3.019911 -3.243286,-4.952568 0,-2.059012 2.499712,-4.927734 4.796085,-5.504087 4.903907,-1.230803 8.283485,6.044125 4.544677,9.782934 -1.233252,1.233251 -3.965487,1.535141 -6.097476,0.673721 z"
     id="path869"
     transform="scale(0.75)" />
  <path
     style="fill:#ffffff;stroke:#000000;stroke-width:0"
     d="m 46.945196,35.056338 c -1.718789,-0.696692 -2.319846,-1.846185 -2.381538,-4.554576 -0.04682,-2.055637 0.182358,-2.838576 1.124448,-3.841386 4.024213,-4.283578 12.130336,0.849778 9.714525,6.151907 -0.989772,2.172312 -5.610017,3.398226 -8.457435,2.244055 z"
     id="path871"
     transform="scale(0.75)" />
  <path
     style="fill:#ffffff;stroke:#000000;stroke-width:0"
     d="m 86.954683,28.186534 c -0.902025,-0.392136 -2.100627,-1.468415 -2.663559,-2.391732 -2.264555,-3.714303 -0.576392,-7.406806 3.601591,-7.877725 3.229842,-0.36405 5.307582,0.785383 6.080018,3.363545 0.752628,2.512047 0.290273,4.35314 -1.557154,6.200567 -1.605892,1.605892 -2.980857,1.783486 -5.460896,0.705345 z"
     id="path873"
     transform="scale(0.75)" />
  <path
     style="fill:#ffffff;stroke:#000000;stroke-width:0"
     d="m 124.55492,34.799319 c -2.51289,-1.093091 -3.47992,-3.97197 -2.16163,-6.435225 0.59271,-1.107493 4.84541,-3.994197 5.88425,-3.994197 1.14899,0 4.15353,3.048228 4.48297,4.54815 0.5108,2.325675 -0.59081,5.567959 -2.08479,6.135968 -1.77554,0.675058 -4.21695,0.573467 -6.1208,-0.254696 z"
     id="path875"
     transform="scale(0.75)" />
  <path
     style="fill:#ffffff;stroke:#000000;stroke-width:0"
     d="m 156.53283,50.795889 c -2.04524,-1.247073 -2.69786,-2.471327 -2.69786,-5.060945 0,-1.539963 0.35053,-2.433871 1.3962,-3.56052 2.26638,-2.441922 5.09706,-2.292025 7.80225,0.413165 2.21898,2.21899 2.39987,3.321355 0.9964,6.072382 -1.57519,3.087636 -4.54738,3.934422 -7.49699,2.135918 z"
     id="path877"
     transform="scale(0.75)" />
</svg>
