<?xml version="1.0" encoding="UTF-8" standalone="no"?>
<svg
   version="1.0"
   width="1280.000000pt"
   height="640.000000pt"
   viewBox="0 0 1280.000000 640.000000"
   preserveAspectRatio="xMidYMid meet"
   id="svg8"
   sodipodi:docname="rook.svg"
   inkscape:version="1.2 (dc2aeda, 2022-05-15)"
   xmlns:inkscape="http://www.inkscape.org/namespaces/inkscape"
   xmlns:sodipodi="http://sodipodi.sourceforge.net/DTD/sodipodi-0.dtd"
   xmlns="http://www.w3.org/2000/svg"
   xmlns:svg="http://www.w3.org/2000/svg">
  <defs
     id="defs12" />
  <sodipodi:namedview
     id="namedview10"
     pagecolor="#ffffff"
     bordercolor="#000000"
     borderopacity="0.25"
     inkscape:showpageshadow="2"
     inkscape:pageopacity="0.0"
     inkscape:pagecheckerboard="0"
     inkscape:deskcolor="#d1d1d1"
     inkscape:document-units="pt"
     showgrid="false"
     inkscape:zoom="4.0273068"
     inkscape:cx="109.75076"
     inkscape:cy="84.920274"
     inkscape:window-width="1309"
     inkscape:window-height="456"
     inkscape:window-x="0"
     inkscape:window-y="25"
     inkscape:window-maximized="0"
     inkscape:current-layer="svg8" />
  <metadata
     id="metadata2">
Created by potrace 1.15, written by Peter Selinger 2001-2017
</metadata>
  <g
     transform="translate(-470,487.000000) scale(0.100000,-0.100000)"
     fill="#000000"
     stroke="none"
     id="g6">
    <path
       d="M4907 4652 c-24 -25 -27 -35 -27 -103 l0 -75 75 -74 75 -74 0 -176 0 -175 -95 -95 -95 -95 0 -66 c0 -106 -33 -99 457 -99 487 0 453 -8 453 101 l0 64 -90 90 -90 90 0 180 0 181 70 69 70 69 0 86 c0 77 -2 89 -23 108 -19 18 -35 22 -93 22 -75 0 -94 -9 -94 -47 0 -20 -5 -23 -35 -23 -30 0 -35 3 -35 23 0 41 -17 47 -130 47 -113 0 -130 -6 -130 -47 0 -20 -5 -23 -35 -23 -27 0 -35 4 -35 18 0 36 -32 52 -101 52 -58 0 -68 -3 -92 -28z m593 -347 l0 -35 -202 2 -203 3 -3 33 -3 32 205 0 206 0 0 -35z m0 -325 l0 -30 -205 0 -205 0 0 30 0 30 205 0 205 0 0 -30z"
       id="path4" />
  </g>
  <path
     style="fill:#ffffff;stroke:#000000;stroke-width:0"
     d="m 52.144028,118.68974 v -3.97288 H 79.333414 106.5228 v 3.97288 3.97288 H 79.333414 52.144028 Z"
     id="path865"
     transform="scale(0.75)" />
  <path
     style="fill:#ffffff;stroke:#000000;stroke-width:0"
     d="M 83.057987,79.664047 C 72.951978,79.548949 62.001732,79.371602 58.724108,79.269943 L 52.76479,79.085109 52.391275,74.926002 52.017759,70.766895 H 79.27028 106.5228 v 4.593641 4.59364 l -2.54513,-0.04043 c -1.39981,-0.02224 -10.813674,-0.134601 -20.919683,-0.249699 z"
     id="path867"
     transform="scale(0.75)" />
</svg>
