<?xml version="1.0" encoding="UTF-8" standalone="no"?>
<svg
   version="1.1"
   viewBox="0.0 0.0 960.0 720.0"
   fill="none"
   stroke="none"
   stroke-linecap="square"
   stroke-miterlimit="10"
   id="svg158"
   sodipodi:docname="white-pawn.svg"
   inkscape:version="1.2 (dc2aeda, 2022-05-15)"
   xmlns:inkscape="http://www.inkscape.org/namespaces/inkscape"
   xmlns:sodipodi="http://sodipodi.sourceforge.net/DTD/sodipodi-0.dtd"
   xmlns="http://www.w3.org/2000/svg"
   xmlns:svg="http://www.w3.org/2000/svg">
  <defs
     id="defs162">
    <clipPath
       id="p.0-6">
      <path
         d="M 0,0 H 960 V 720 H 0 Z"
         clip-rule="nonzero"
         id="path127-5" />
    </clipPath>
  </defs>
  <sodipodi:namedview
     id="namedview160"
     pagecolor="#ffffff"
     bordercolor="#000000"
     borderopacity="0.25"
     inkscape:showpageshadow="2"
     inkscape:pageopacity="0.0"
     inkscape:pagecheckerboard="0"
     inkscape:deskcolor="#d1d1d1"
     showgrid="false"
     inkscape:zoom="0.7274914"
     inkscape:cx="305.84554"
     inkscape:cy="394.50638"
     inkscape:window-width="1440"
     inkscape:window-height="900"
     inkscape:window-x="0"
     inkscape:window-y="0"
     inkscape:window-maximized="0"
     inkscape:current-layer="svg158" />
  <g
     clip-path="none"
     id="g156"
     transform="translate(0,-0.40341911)">
    <path
       fill="#000000"
       d="m 303.8294,226.67192 v 0 c 0,-51.81041 41.73975,-93.81104 93.22833,-93.81104 v 0 c 24.72571,0 48.43869,9.88364 65.92239,27.47663 17.4837,17.59297 27.30597,41.45418 27.30597,66.33441 v 0 c 0,51.81038 -41.73978,93.81102 -93.22836,93.81102 v 0 c -51.48859,0 -93.22833,-42.00064 -93.22833,-93.81102 z"
       fill-rule="evenodd"
       id="path132"
       sodipodi:insensitive="true" />
    <path
       fill="#000000"
       fill-opacity="0"
       d="M 0,0 H 960 V 720 H 0 Z"
       fill-rule="evenodd"
       id="path130"
       sodipodi:insensitive="true" />
    <path
       stroke="#000000"
       stroke-width="1"
       stroke-linejoin="round"
       stroke-linecap="butt"
       d="m 303.8294,226.67192 v 0 c 0,-51.81041 41.73975,-93.81104 93.22833,-93.81104 v 0 c 24.72571,0 48.43869,9.88364 65.92239,27.47663 17.4837,17.59297 27.30597,41.45418 27.30597,66.33441 v 0 c 0,51.81038 -41.73978,93.81102 -93.22836,93.81102 v 0 c -51.48859,0 -93.22833,-42.00064 -93.22833,-93.81102 z"
       fill-rule="evenodd"
       id="path134"
       sodipodi:insensitive="true" />
    <path
       fill="#000000"
       d="m 305.0105,307.9739 v 0 c 0,-4.10236 3.32562,-7.42798 7.42798,-7.42798 h 169.23853 c 1.97003,0 3.85937,0.78259 5.25238,2.1756 1.393,1.39304 2.1756,3.28235 2.1756,5.25238 v 29.711 c 0,4.10232 -3.32563,7.42795 -7.42798,7.42795 H 312.43848 c -4.10236,0 -7.42798,-3.32563 -7.42798,-7.42795 z"
       fill-rule="evenodd"
       id="path136"
       style="display:inline"
       sodipodi:insensitive="true" />
    <path
       stroke="#000000"
       stroke-width="1"
       stroke-linejoin="round"
       stroke-linecap="butt"
       d="m 305.0105,307.9739 v 0 c 0,-4.10236 3.32562,-7.42798 7.42798,-7.42798 h 169.23853 c 1.97003,0 3.85937,0.78259 5.25238,2.1756 1.393,1.39304 2.1756,3.28235 2.1756,5.25238 v 29.711 c 0,4.10232 -3.32563,7.42795 -7.42798,7.42795 H 312.43848 c -4.10236,0 -7.42798,-3.32563 -7.42798,-7.42795 z"
       fill-rule="evenodd"
       id="path138"
       sodipodi:insensitive="true" />
    <path
       fill="#000000"
       d="m 309.96847,224.48852 v 0 c 0,-46.93645 38.7764,-84.98594 86.60951,-84.98594 v 0 c 22.97028,0 44.99975,8.95385 61.24217,24.89181 16.24243,15.93795 25.36736,37.55446 25.36736,60.09413 v 0 c 0,46.93641 -38.77643,84.98592 -86.60953,84.98592 v 0 c -47.83312,0 -86.60951,-38.04951 -86.60951,-84.98592 z"
       fill-rule="evenodd"
       id="path132-8"
       style="fill:#ffffff;fill-opacity:1;stroke-width:0.917393"
       sodipodi:insensitive="true" />
    <path
       fill="#000000"
       d="m 381.5359,362.58704 68.46677,-22.16708 c -7.56262,2.44851 -2.3847,39.363 11.56522,82.4508 13.94992,43.08783 31.38928,76.0325 38.95193,73.58399 l -68.4668,22.16708 v 0 c -7.56262,2.44849 -25.00198,-30.49615 -38.9519,-73.58398 -13.94995,-43.0878 -19.12787,-80.00229 -11.56522,-82.45081 z"
       fill-rule="evenodd"
       id="path140" />
    <path
       stroke="#000000"
       stroke-width="1"
       stroke-linejoin="round"
       stroke-linecap="butt"
       d="m 381.5359,362.58704 68.46677,-22.16708 c -7.56262,2.44851 -2.3847,39.363 11.56522,82.4508 13.94992,43.08783 31.38928,76.0325 38.95193,73.58399 l -68.4668,22.16708 v 0 c -7.56262,2.44849 -25.00198,-30.49615 -38.9519,-73.58398 -13.94995,-43.0878 -19.12787,-80.00229 -11.56522,-82.45081 z"
       fill-rule="evenodd"
       id="path142" />
    <path
       fill="#000000"
       d="m 374.46042,518.41956 -69.45078,-18.85925 c 7.67133,2.08313 23.51181,-31.65955 35.38071,-75.3664 11.8689,-43.70688 15.27173,-80.82699 7.60041,-82.91012 l 69.45077,18.85925 v 0 c 7.6713,2.08316 4.26849,39.20328 -7.6004,82.91013 -11.8689,43.70685 -27.70938,77.44952 -35.38071,75.36639 z"
       fill-rule="evenodd"
       id="path144" />
    <path
       stroke="#000000"
       stroke-width="1"
       stroke-linejoin="round"
       stroke-linecap="butt"
       d="m 374.46042,518.41956 -69.45078,-18.85925 c 7.67133,2.08313 23.51181,-31.65955 35.38071,-75.3664 11.8689,-43.70688 15.27173,-80.82699 7.60041,-82.91012 l 69.45077,18.85925 v 0 c 7.6713,2.08316 4.26849,39.20328 -7.6004,82.91013 -11.8689,43.70685 -27.70938,77.44952 -35.38071,75.36639 z"
       fill-rule="evenodd"
       id="path146" />
    <path
       fill="#000000"
       d="m 274.51443,504.56183 v 0 c 0,-4.10236 3.32562,-7.42798 7.42798,-7.42798 h 243.12833 c 1.96997,0 3.85931,0.78259 5.25232,2.1756 1.39306,1.39304 2.1756,3.28235 2.1756,5.25238 v 29.711 c 0,4.10235 -3.32557,7.42798 -7.42792,7.42798 H 281.94241 c -4.10236,0 -7.42798,-3.32563 -7.42798,-7.42798 z"
       fill-rule="evenodd"
       id="path148" />
    <path
       stroke="#000000"
       stroke-width="1"
       stroke-linejoin="round"
       stroke-linecap="butt"
       d="m 274.51443,504.56183 v 0 c 0,-4.10236 3.32562,-7.42798 7.42798,-7.42798 h 243.12833 c 1.96997,0 3.85931,0.78259 5.25232,2.1756 1.39306,1.39304 2.1756,3.28235 2.1756,5.25238 v 29.711 c 0,4.10235 -3.32557,7.42798 -7.42792,7.42798 H 281.94241 c -4.10236,0 -7.42798,-3.32563 -7.42798,-7.42798 z"
       fill-rule="evenodd"
       id="path150" />
    <path
       fill="#000000"
       d="m 351.32547,335.72733 v 0 c 0,-8.41925 6.82513,-15.24439 15.24439,-15.24439 h 60.97577 v 0 c 4.04306,0 7.92053,1.60611 10.77941,4.46497 2.85889,2.85889 4.465,6.73636 4.465,10.77942 v 152.15689 c 0,8.41925 -6.82516,15.24439 -15.24441,15.24439 h -60.97577 c -8.41926,0 -15.24439,-6.82514 -15.24439,-15.24439 z"
       fill-rule="evenodd"
       id="path152" />
    <path
       stroke="#000000"
       stroke-width="1"
       stroke-linejoin="round"
       stroke-linecap="butt"
       d="m 351.32547,335.72733 v 0 c 0,-8.41925 6.82513,-15.24439 15.24439,-15.24439 h 60.97577 v 0 c 4.04306,0 7.92053,1.60611 10.77941,4.46497 2.85889,2.85889 4.465,6.73636 4.465,10.77942 v 152.15689 c 0,8.41925 -6.82516,15.24439 -15.24441,15.24439 h -60.97577 c -8.41926,0 -15.24439,-6.82514 -15.24439,-15.24439 z"
       fill-rule="evenodd"
       id="path154" />
    <path
       fill="#000000"
       d="m 359.10509,337.49723 85.5339,1.72286 c -7.25632,2.71119 -4.41377,35.08298 8.97106,82.79335 13.3848,47.71027 39.48046,84.34045 48.71153,83.60398 L 425.2906,528.0369 317.43467,507.28553 c -7.60674,-1.46353 17.72262,-28.13399 32.21843,-89.72795 10.87906,-46.22608 2.19565,-77.34913 9.45199,-80.06035 z"
       fill-rule="evenodd"
       id="path140-4"
       style="fill:#ffffff;fill-opacity:1;stroke-width:1.03075"
       sodipodi:nodetypes="ccsccssc" />
    <path
       fill="#000000"
       d="m 281.58233,508.07185 v 0 c 0,-3.25445 3.14293,-5.89269 7.01995,-5.89269 h 229.77281 c 1.86176,0 3.64732,0.62083 4.96382,1.72593 1.31654,1.1051 2.05608,2.60392 2.05608,4.16676 v 23.57005 c 0,3.25443 -3.14289,5.89269 -7.01989,5.89269 H 288.60228 c -3.87702,0 -7.01995,-2.63826 -7.01995,-5.89269 z"
       fill-rule="evenodd"
       id="path148-7"
       style="fill:#ffffff;fill-opacity:1;stroke-width:0.865871" />
  </g>
  <path
     fill="#000000"
     d="m 310.04643,310.2943 v 0 c 0,-3.34079 3.13483,-6.04903 7.00182,-6.04903 h 159.52897 c 1.85701,0 3.63797,0.63731 4.95105,1.77172 1.31308,1.13443 2.05079,2.673 2.05079,4.27731 v 24.19537 c 0,3.34075 -3.13484,6.049 -7.00184,6.049 H 317.04825 c -3.86699,0 -7.00182,-2.70825 -7.00182,-6.049 z"
     fill-rule="evenodd"
     id="path136-4"
     style="fill:#ffffff;fill-opacity:1;stroke-width:0.876148" />
  <path
     d="M 0,0 H 960 V 720 H 0 Z"
     clip-rule="nonzero"
     id="path127" />
</svg>
